<svg width="408" height="144" viewBox="0 0 408 144" fill="none" xmlns="http://www.w3.org/2000/svg">
<path fill-rule="evenodd" clip-rule="evenodd" d="M159.055 28C167.055 28 171.055 32 171.055 40V55.2527L183 73L173 67.5L179.5 87L171.055 72.8239V104C171.055 112 167.055 116 159.055 116H137.055C129.055 116 125.055 112 125.055 104V40C125.055 32 129.055 28 137.055 28H159.055ZM197.455 134.6C203.855 128.2 207.055 118 207.055 104V40C207.055 26 203.855 15.8667 197.455 9.6C191.188 3.2 181.055 0 167.055 0H129.055C115.055 0 104.855 3.2 98.4547 9.6C92.188 15.8667 89.0547 26 89.0547 40V44.1229L102.5 63.5L89.0547 53.6137V104C89.0547 118 92.188 128.2 98.4547 134.6C104.855 140.867 115.055 144 129.055 144H167.055C181.055 144 191.188 140.867 197.455 134.6ZM33 93.5143V142H69V122.647L62.5 115L69 99.7059V2H37L0 18L10 41L33 33V73.875L42 75L33 93.5143ZM305.039 40C305.039 32 301.039 28 293.039 28H271.039C263.039 28 259.039 32 259.039 40V59.2514L249.5 77.5L259.039 69.2052V71.7487L252 87L259.039 82.8206V104C259.039 112 263.039 116 271.039 116H277.5V128.5L281.071 116H282.5V125L287 116H293.039C301.039 116 305.039 112 305.039 104V40ZM341.039 104C341.039 118 337.839 128.2 331.439 134.6C325.172 140.867 315.039 144 301.039 144H263.039C249.039 144 238.839 140.867 232.439 134.6C226.172 128.2 223.039 118 223.039 104V40C223.039 26 226.172 15.8667 232.439 9.6C238.839 3.2 249.039 0 263.039 0H301.039C315.039 0 325.172 3.2 331.439 9.6C337.839 15.8667 341.039 26 341.039 40V49.0134L331.5 55.5L341.039 72.2887V104ZM387.523 93L359.523 142H370.723L398.023 93H387.523ZM371.913 115.96C373.453 114.42 374.223 112.25 374.223 109.45V101.05C374.223 98.25 373.453 96.1033 371.913 94.61C370.42 93.07 368.273 92.3 365.473 92.3H359.173C356.373 92.3 354.203 93.07 352.663 94.61C351.17 96.1033 350.423 98.25 350.423 101.05V109.45C350.423 112.25 351.17 114.42 352.663 115.96C354.203 117.453 356.373 118.2 359.173 118.2H365.473C368.273 118.2 370.42 117.453 371.913 115.96ZM363.373 98.6C365.007 98.6 365.823 99.4167 365.823 101.05V109.45C365.823 111.083 365.007 111.9 363.373 111.9H361.273C359.64 111.9 358.823 111.083 358.823 109.45V101.05C358.823 99.4167 359.64 98.6 361.273 98.6H363.373ZM405.513 140.46C407.053 138.92 407.823 136.75 407.823 133.95V125.55C407.823 122.75 407.053 120.603 405.513 119.11C404.02 117.57 401.873 116.8 399.073 116.8H392.773C389.973 116.8 387.803 117.57 386.263 119.11C384.77 120.603 384.023 122.75 384.023 125.55V133.95C384.023 136.75 384.77 138.92 386.263 140.46C387.803 141.953 389.973 142.7 392.773 142.7H399.073C401.873 142.7 404.02 141.953 405.513 140.46ZM396.973 123.1C398.607 123.1 399.423 123.917 399.423 125.55V133.95C399.423 135.583 398.607 136.4 396.973 136.4H394.873C393.24 136.4 392.423 135.583 392.423 133.95V125.55C392.423 123.917 393.24 123.1 394.873 123.1H396.973Z" fill="url(#paint0_linear)"/>
<defs>
<linearGradient id="paint0_linear" x1="205" y1="1" x2="205" y2="149" gradientUnits="userSpaceOnUse">
<stop stop-color="#B4F42A"/>
<stop offset="1" stop-color="#5DE614"/>
</linearGradient>
</defs>
</svg>
