<svg width="309" height="144" viewBox="0 0 309 144" fill="none" xmlns="http://www.w3.org/2000/svg">
<path fill-rule="evenodd" clip-rule="evenodd" d="M67.1875 2L37.5 11.5L45.1 2H6V84H64C72 84 76 88 76 96V106C76 109.067 75.0667 111.533 73.2 113.4C71.4667 115.133 69.0667 116 66 116C51.4667 116 29.4667 115 0 113V140C18.0019 141.774 34.9421 142.957 50.8207 143.551L34.5 136L57 140.5L52.5 134L75.5433 143.985C87.8251 143.751 96.9107 140.689 102.8 134.8C108.933 128.667 112 119.067 112 106V92C112 79.8667 108.933 70.8667 102.8 65C98.4884 60.7821 92.4637 58.0468 84.7258 56.794L89 66L77.2927 56.0665C76.5097 56.0341 75.7132 56.0136 74.9029 56.0048L78.5 62L65.6 56H42V30H102V2H67.1875ZM241.922 71.3201L226 62L241.922 58.1401V57.1505C239.741 53.9608 231.837 42.5485 226 36L241.922 44.5978V40C241.922 26 238.722 15.8667 232.322 9.59999C226.055 3.2 215.922 0 201.922 0H163.922C149.922 0 139.722 3.2 133.322 9.59999C127.055 15.8667 123.922 26 123.922 40V104C123.922 118 127.055 128.2 133.322 134.6C139.722 140.867 149.922 144 163.922 144H191.615C193.016 138.711 194.802 132.521 196 128.5V144H197.116L204 125.5L210.969 143.503C220.379 142.393 227.497 139.425 232.322 134.6C238.722 128.2 241.922 118 241.922 104V71.3201ZM159.922 66.6146V40C159.922 32 163.922 28 171.922 28H193.922C201.922 28 205.922 32 205.922 40V104C205.922 112 201.922 116 193.922 116H171.922C163.922 116 159.922 112 159.922 104V78.4144L151 59.5L159 66L159.922 66.6146ZM260.1 141L288.1 92.0001H298.6L271.3 141H260.1ZM274.8 108.45C274.8 111.25 274.03 113.42 272.49 114.96C270.997 116.453 268.85 117.2 266.05 117.2H259.75C256.95 117.2 254.78 116.453 253.24 114.96C251.747 113.42 251 111.25 251 108.45V100.05C251 97.25 251.747 95.1034 253.24 93.61C254.78 92.07 256.95 91.3 259.75 91.3H266.05C268.85 91.3 270.997 92.07 272.49 93.61C274.03 95.1034 274.8 97.25 274.8 100.05V108.45ZM266.4 100.05C266.4 98.4167 265.583 97.6001 263.95 97.6001H261.85C260.217 97.6001 259.4 98.4167 259.4 100.05V108.45C259.4 110.083 260.217 110.9 261.85 110.9H263.95C265.583 110.9 266.4 110.083 266.4 108.45V100.05ZM308.4 132.95C308.4 135.75 307.63 137.92 306.09 139.46C304.597 140.953 302.45 141.7 299.65 141.7H293.35C290.55 141.7 288.38 140.953 286.84 139.46C285.347 137.92 284.6 135.75 284.6 132.95V124.55C284.6 121.75 285.347 119.603 286.84 118.11C288.38 116.57 290.55 115.8 293.35 115.8H299.65C302.45 115.8 304.597 116.57 306.09 118.11C307.63 119.603 308.4 121.75 308.4 124.55V132.95ZM300 124.55C300 122.917 299.183 122.1 297.55 122.1H295.45C293.817 122.1 293 122.917 293 124.55V132.95C293 134.583 293.817 135.4 295.45 135.4H297.55C299.183 135.4 300 134.583 300 132.95V124.55Z" fill="url(#paint0_linear)"/>
<defs>
<linearGradient id="paint0_linear" x1="121.213" y1="1" x2="121.213" y2="149" gradientUnits="userSpaceOnUse">
<stop stop-color="#B4F42A"/>
<stop offset="1" stop-color="#5DE614"/>
</linearGradient>
</defs>
</svg>
