<svg width="29" height="31" viewBox="0 0 29 31" fill="none" xmlns="http://www.w3.org/2000/svg">
<path fill-rule="evenodd" clip-rule="evenodd" d="M26.36 30.0611H2.06C0.924 30.0611 0 29.1351 0 27.9981V8.78508C0 7.64808 0.924 6.72208 2.06 6.72208H5.676C5.056 6.01008 4.679 5.07908 4.679 4.06208C4.679 1.82608 6.495 0.00708008 8.728 0.00708008C10.214 0.00708008 11.578 0.82008 12.288 2.12808C12.422 2.37408 13.022 3.61008 13.592 4.79108C13.787 4.72708 13.994 4.69008 14.21 4.69008C14.426 4.69008 14.633 4.72708 14.828 4.79108C15.398 3.61008 15.998 2.37408 16.132 2.12808C16.843 0.82008 18.206 0.00708008 19.692 0.00708008C21.925 0.00708008 23.742 1.82608 23.742 4.06208C23.742 5.07908 23.364 6.01008 22.744 6.72208H26.36C27.496 6.72208 28.42 7.64808 28.42 8.78508V27.9981C28.42 29.1351 27.496 30.0611 26.36 30.0611ZM11.065 2.79308C10.598 1.93508 9.703 1.40208 8.728 1.40208C7.263 1.40208 6.071 2.59508 6.071 4.06208C6.071 5.52908 7.263 6.72208 8.728 6.72208H12.254C12.253 6.69908 12.251 6.67508 12.251 6.65208C12.251 6.31208 12.338 5.99208 12.49 5.71308C11.861 4.40808 11.193 3.02908 11.065 2.79308ZM19.692 1.40208C18.717 1.40208 17.822 1.93508 17.356 2.79308C17.228 3.02908 16.559 4.40808 15.93 5.71308C16.082 5.99208 16.169 6.31208 16.169 6.65208C16.169 6.67508 16.167 6.69908 16.167 6.72208H19.692C21.157 6.72208 22.349 5.52908 22.349 4.06208C22.349 2.59508 21.157 1.40208 19.692 1.40208ZM27.028 22.7551L23.056 25.3601C22.938 25.4371 22.806 25.4741 22.675 25.4741C22.448 25.4741 22.225 25.3631 22.092 25.1591C21.881 24.8371 21.971 24.4051 22.293 24.1941L27.028 21.0881V18.0071L23.056 20.6121C22.938 20.6891 22.806 20.7261 22.675 20.7261C22.448 20.7261 22.225 20.6151 22.092 20.4111C21.881 20.0891 21.971 19.6571 22.293 19.4461L27.028 16.3411V13.2591L23.056 15.8641C22.938 15.9411 22.806 15.9781 22.675 15.9781C22.448 15.9781 22.225 15.8671 22.092 15.6631C21.881 15.3411 21.971 14.9091 22.293 14.6981L27.028 11.5921V8.78508C27.028 8.41708 26.728 8.11708 26.36 8.11708H2.06C1.692 8.11708 1.392 8.41708 1.392 8.78508V14.0281L5.365 11.4231C5.687 11.2121 6.118 11.3021 6.329 11.6241C6.539 11.9471 6.449 12.3791 6.128 12.5901L1.392 15.6951V18.7761L5.365 16.1711C5.687 15.9601 6.118 16.0501 6.329 16.3721C6.539 16.6941 6.449 17.1271 6.128 17.3381L1.392 20.4431V23.5241L5.365 20.9191C5.687 20.7081 6.118 20.7981 6.329 21.1201C6.539 21.4431 6.449 21.8741 6.128 22.0851L1.392 25.1911V27.9981C1.392 28.3671 1.692 28.6671 2.06 28.6671H11.249V10.9571C11.249 10.5721 11.56 10.2601 11.945 10.2601C12.329 10.2601 12.641 10.5721 12.641 10.9571V28.6671H15.779V18.4881C15.779 18.1031 16.091 17.7911 16.475 17.7911C16.86 17.7911 17.171 18.1031 17.171 18.4881V28.6671H26.36C26.728 28.6671 27.028 28.3671 27.028 27.9981V22.7551ZM16.475 14.9511C16.091 14.9511 15.779 14.6391 15.779 14.2541V10.9571C15.779 10.5721 16.091 10.2601 16.475 10.2601C16.86 10.2601 17.171 10.5721 17.171 10.9571V14.2541C17.171 14.6391 16.86 14.9511 16.475 14.9511Z" fill="#ffe905"/>
</svg>
