<svg width="30" height="31" viewBox="0 0 30 31" fill="none" xmlns="http://www.w3.org/2000/svg">
<path fill-rule="evenodd" clip-rule="evenodd" d="M29.321 10.7059H26.678C26.304 10.7059 26 10.4009 26 10.0259C26 9.65093 26.304 9.34593 26.678 9.34593H29.321C29.696 9.34593 30 9.65093 30 10.0259C30 10.4009 29.696 10.7059 29.321 10.7059ZM29.321 7.38293H23.862C23.487 7.38293 23.183 7.07893 23.183 6.70393C23.183 6.32793 23.487 6.02393 23.862 6.02393H29.321C29.696 6.02393 30 6.32793 30 6.70393C30 7.07893 29.696 7.38293 29.321 7.38293ZM29.321 4.06093H26.678C26.304 4.06093 26 3.75593 26 3.38093C26 3.00593 26.304 2.70193 26.678 2.70193H29.321C29.696 2.70193 30 3.00593 30 3.38093C30 3.75593 29.696 4.06093 29.321 4.06093ZM19.395 7.50993C20.829 9.08893 27.238 15.7199 27.85 16.3669C29.236 17.8309 30 19.8159 30 21.9549C30 26.5479 26.27 30.2849 21.685 30.2849H8.315C3.73 30.2849 0 26.5479 0 21.9549C0 19.8159 0.763 17.8309 2.15 16.3669C2.761 15.7199 9.17 9.08893 10.604 7.50993L7.503 1.72093C7.347 1.42993 7.423 1.06793 7.683 0.863934C8.073 0.557934 8.561 0.231934 9.413 0.231934C10.348 0.231934 10.859 0.636934 11.232 0.932934C11.552 1.18693 11.745 1.33993 12.207 1.33993C12.67 1.33993 12.863 1.18693 13.183 0.932934C13.556 0.636934 14.066 0.231934 15.001 0.231934C15.935 0.231934 16.446 0.636934 16.819 0.932934C17.139 1.18693 17.332 1.33993 17.794 1.33993C18.256 1.33993 18.449 1.18693 18.769 0.932934C19.142 0.636934 19.652 0.231934 20.587 0.231934C21.439 0.231934 21.927 0.557934 22.317 0.863934C22.577 1.06793 22.653 1.42993 22.497 1.72093L19.395 7.50993ZM3.134 17.3019C1.988 18.5129 1.357 20.1659 1.357 21.9549C1.357 25.7989 4.478 28.9249 8.315 28.9249H21.685C25.521 28.9249 28.643 25.7989 28.643 21.9549C28.643 20.1649 28.012 18.5129 26.865 17.3019C26.259 16.6609 19.701 9.87693 18.269 8.28893H11.73C10.298 9.87693 3.741 16.6609 3.134 17.3019ZM20.587 1.59093C20.125 1.59093 19.932 1.74393 19.612 1.99793C19.239 2.29393 18.729 2.69893 17.794 2.69893C16.86 2.69893 16.349 2.29393 15.976 1.99893C15.656 1.74393 15.463 1.59093 15.001 1.59093C14.539 1.59093 14.346 1.74393 14.025 1.99893C13.652 2.29393 13.142 2.69893 12.207 2.69893C11.273 2.69893 10.762 2.29393 10.389 1.99893C10.069 1.74393 9.876 1.59093 9.413 1.59093C9.248 1.59093 9.117 1.61093 9.003 1.64693L11.834 6.92993H18.166L20.996 1.64693C20.882 1.61093 20.752 1.59093 20.587 1.59093ZM8.315 27.2639C5.392 27.2639 3.015 24.8829 3.015 21.9549C3.015 20.5929 3.485 19.3459 4.338 18.4449C4.595 18.1719 5.025 18.1609 5.297 18.4189C5.568 18.6769 5.58 19.1069 5.322 19.3799C4.709 20.0279 4.372 20.9419 4.372 21.9549C4.372 24.1329 6.141 25.9049 8.315 25.9049C8.689 25.9049 8.993 26.2089 8.993 26.5849C8.993 26.9599 8.689 27.2639 8.315 27.2639ZM13.026 19.5079C13.401 19.5079 13.705 19.8119 13.705 20.1869C13.705 20.9029 14.286 21.4849 15 21.4849C15.636 21.4849 16.167 21.0219 16.275 20.4149L13.109 16.7179C13.003 16.5939 12.945 16.4369 12.945 16.2749C12.945 15.3779 13.521 14.6159 14.321 14.3349V13.7779C14.321 13.4029 14.625 13.0979 15 13.0979C15.374 13.0979 15.678 13.4029 15.678 13.7779V14.3349C16.478 14.6159 17.054 15.3779 17.054 16.2749C17.054 16.6499 16.751 16.9549 16.376 16.9549C16.001 16.9549 15.698 16.6499 15.698 16.2749C15.698 15.8899 15.385 15.5759 15 15.5759C14.689 15.5759 14.425 15.7809 14.335 16.0619L17.488 19.7449C17.594 19.8679 17.652 20.0249 17.652 20.1869C17.652 21.4169 16.812 22.4509 15.678 22.7519V23.2829C15.678 23.6579 15.374 23.9619 15 23.9619C14.625 23.9619 14.321 23.6579 14.321 23.2829V22.7519C13.187 22.4509 12.348 21.4169 12.348 20.1869C12.348 19.8119 12.652 19.5079 13.026 19.5079ZM21.685 25.9049C23.859 25.9049 25.628 24.1329 25.628 21.9549C25.628 20.9419 25.29 20.0269 24.677 19.3799C24.42 19.1069 24.431 18.6769 24.703 18.4189C24.975 18.1609 25.404 18.1719 25.662 18.4449C26.515 19.3459 26.984 20.5929 26.984 21.9549C26.984 24.8829 24.607 27.2639 21.685 27.2639C21.31 27.2639 21.007 26.9599 21.007 26.5849C21.007 26.2089 21.31 25.9049 21.685 25.9049ZM0.678 9.34593H3.321C3.696 9.34593 4 9.65093 4 10.0259C4 10.4009 3.696 10.7059 3.321 10.7059H0.678C0.304 10.7059 0 10.4009 0 10.0259C0 9.65093 0.304 9.34593 0.678 9.34593ZM6.138 7.38293H0.678C0.304 7.38293 0 7.07893 0 6.70393C0 6.32793 0.304 6.02393 0.678 6.02393H6.138C6.513 6.02393 6.816 6.32793 6.816 6.70393C6.816 7.07893 6.513 7.38293 6.138 7.38293ZM3.321 4.06093H0.678C0.304 4.06093 0 3.75593 0 3.38093C0 3.00593 0.304 2.70193 0.678 2.70193H3.321C3.696 2.70193 4 3.00593 4 3.38093C4 3.75593 3.696 4.06093 3.321 4.06093Z" fill="#ffe905"/>
</svg>
