<svg width="412" height="468" viewBox="0 0 412 468" fill="none" xmlns="http://www.w3.org/2000/svg">
<path opacity="0.16" d="M387.719 467.511H42.2045C29.6702 467.511 19.3999 456.847 19.3999 443.787C19.3999 443.787 23.4686 422.656 19.3999 393.223C15.3311 363.791 23.4686 279.463 19.3999 251.441C15.3311 223.419 23.9608 166.424 19.3999 134.432C14.839 102.44 19.3999 27.234 19.3999 27.234C19.3999 14.1747 29.6702 3.51069 42.2045 3.51069C42.2045 3.51069 273.827 7.34974 330.494 3.51069C387.161 -0.328362 387.719 3.51069 387.719 3.51069C400.253 3.51069 410.523 14.1747 410.523 27.234C410.523 27.234 407.209 116.582 410.523 159.566C413.837 202.551 410.523 443.787 410.523 443.787C410.523 456.847 400.253 467.511 387.719 467.511Z" fill="black"/>
<path d="M406.389 431.154C406.389 443.82 396.283 454.189 383.945 454.189H73.4418V444.279L69.6028 454.189H46.0107C33.6732 454.189 23.567 443.82 23.567 431.154C23.567 431.154 27.5701 410.614 23.567 382.067C19.5639 353.52 27.5701 269.685 23.567 242.451C19.5639 215.216 28.0623 159.862 23.567 128.821C19.0717 97.7479 23.567 24.7075 23.567 24.7075C23.567 12.042 33.6732 1.67324 46.0107 1.67324C46.0107 1.67324 273.138 5.41385 328.919 1.67324C384.7 -2.06738 383.978 1.67324 383.978 1.67324C396.316 1.67324 406.422 12.042 406.422 24.7075C406.422 24.7075 403.141 111.496 406.422 153.234C409.67 194.938 406.389 431.154 406.389 431.154Z" fill="#5B210D"/>
<path d="M403.042 426.725C403.042 439.161 393.067 449.333 380.894 449.333H74.6558L76.1324 437.979L68.4871 449.333H49.0622C36.8888 449.333 26.9138 439.161 26.9138 426.725C26.9138 426.725 30.8841 406.578 26.9138 378.556C22.9435 350.534 30.8513 267.06 26.9138 240.35C22.9763 213.641 31.3435 159.337 26.9138 128.854C22.4841 98.3713 26.9138 26.7091 26.9138 26.7091C26.9138 14.2732 36.8888 4.10134 49.0622 4.10134C49.0622 4.10134 272.547 7.77633 327.606 4.10134C382.666 0.426358 380.927 4.10134 380.927 4.10134C393.1 4.10134 403.075 14.2732 403.075 26.7091C403.075 26.7091 399.859 111.857 403.075 152.807C406.291 193.757 403.042 426.725 403.042 426.725Z" fill="#803414"/>
<path d="M348.705 44.6574C348.705 44.6574 393.067 49.1855 394.281 51.2855C394.281 51.2855 393.396 23.1325 389.13 21.0982C384.864 19.0638 372.199 26.8075 372.199 26.8075L365.571 34.2887L348.705 44.6574Z" fill="#5B210D"/>
<path d="M391.853 56.2402C391.853 56.2402 394.445 96.9932 393.231 104.31C392.017 111.628 391.066 134.498 391.066 135.154C391.066 135.81 378.006 120.323 378.006 120.323L382.436 73.4339L391.853 56.2402Z" fill="#5B210D"/>
<path d="M37.578 394.962C37.578 394.962 33.5749 392.173 35.8389 374.553C38.103 356.933 77.8059 357.655 77.8059 357.655C77.8059 357.655 49.4889 412.452 48.3404 412.616C47.192 412.78 37.578 394.962 37.578 394.962Z" fill="#5B210D"/>
<path d="M37.5779 179.188C37.5779 179.188 34.7888 156.515 34.2966 153.332C34.2966 153.332 47.5528 146.015 66.8137 142.865C86.0746 139.715 54.0497 167.081 54.0497 167.081L37.5779 179.188Z" fill="#5B210D"/>
<path d="M296.632 435.715C296.632 435.715 280.127 439.128 268.347 437.979C256.568 436.831 279.897 435.945 274.024 436.962C268.118 437.979 255.452 435.715 255.452 435.715L252.532 428.168L298.535 435.814" fill="#5B210D"/>
<path d="M389.786 344.825C389.786 344.825 391.164 392.6 393.133 401.853C395.102 411.106 394.15 422 388.31 425.872C382.502 429.744 367.605 408.744 367.605 408.744C367.605 408.744 375.939 386.792 378.072 385.578C380.205 384.364 389.786 344.825 389.786 344.825Z" fill="#5B210D"/>
<path d="M392.378 172.396C390.213 156.252 391.131 91.7431 391.853 56.2729C382.567 49.6776 350.51 44.9527 350.51 44.9527C356.383 44.9527 381.911 46.8886 392.017 47.6433C392.214 38.3902 392.378 32.5824 392.378 32.5824C392.378 20.7043 382.928 11.0247 371.378 11.0247H58.5778C47.0278 11.0247 37.5779 20.7371 37.5779 32.5824V146.212C46.4044 143.193 61.9247 144.013 61.9247 144.013C57.1012 144.013 43.5825 152.282 37.5779 156.121V361.691C48.57 353.061 74.4262 361.231 74.4262 361.231C66.1246 361.231 44.5013 370.452 37.5779 373.503V413.206C37.5779 425.084 47.0278 434.764 58.5778 434.764C58.5778 434.764 197.768 431.45 223.788 434.764C249.808 438.078 262.408 430.958 285.508 434.764C308.608 438.57 371.378 434.764 371.378 434.764C382.075 434.764 390.967 426.429 392.214 415.765C384.897 413.009 370.886 410.286 370.886 410.286C375.677 410.286 386.177 410.286 392.116 410.286C391.131 398.801 387.719 356.441 390.278 340.822C393.231 322.677 395.43 194.938 392.378 172.396Z" fill="#BC6321"/>
<path d="M360.813 439.128C360.813 439.128 362.42 448.84 365.341 450.481C368.294 452.122 356.022 452.122 356.022 452.122L360.813 439.128Z" fill="#5B210D"/>
<path d="M179.426 452.942C179.426 452.942 187.924 455.14 193.174 447.068C198.424 438.997 210.368 438.997 211.024 438.833C211.681 438.669 214.798 439.489 220.179 441.195C225.593 442.868 245.707 451.104 245.707 451.104L179.426 452.942Z" fill="#5B210D"/>
<path d="M22.7468 84.2621C22.7468 84.2621 28.6531 85.6402 29.6046 79.9636C30.589 74.2871 34.6249 65.4606 35.6093 63.6887C35.6093 63.6887 31.6718 65.3293 29.1781 69.7262C26.6515 74.123 23.3374 76.9121 23.3374 76.9121L22.7468 84.2621Z" fill="#5B210D"/>
<path opacity="0.58" d="M296.271 441.687C296.271 441.687 336.04 442.114 341.618 439.128C347.196 436.142 353.397 442.54 348.147 444.87C342.897 447.233 332.758 444.312 322.455 445.592C312.152 446.872 290.529 449.004 290.693 445.592C290.857 442.212 293.974 441.687 296.271 441.687Z" fill="#5B210D"/>
<path opacity="0.58" d="M393.559 358.016C393.559 358.016 395.43 286.583 395.2 281.3C394.97 276.018 394.708 242.451 398.383 242.976C402.058 243.501 402.812 332.619 401.336 338.919C399.859 345.219 402.255 362.872 402.058 366.153C401.828 369.435 392.903 364.775 393.559 358.016Z" fill="#5B210D"/>
<path opacity="0.58" d="M31.3435 125.474C31.3435 125.474 34.2967 107.329 34.2967 96.7306C34.2967 86.1322 28.3904 86.8868 28.3904 92.9571C28.3904 99.0274 27.2748 131.905 31.3435 125.474Z" fill="#5B210D"/>
<path d="M371.378 11.0247H58.5778C47.0278 11.0247 37.5779 20.7371 37.5779 32.5824V129.051C57.4294 122.915 102.317 112.809 137.393 132.595C183.79 158.746 253.615 171.608 328.722 149.69C390.016 131.774 365.144 149.887 391.591 161.469C390.508 136.663 391.263 86.1322 391.853 56.2401C382.567 49.6448 350.51 44.9198 350.51 44.9198C356.383 44.9198 381.911 46.8558 392.017 47.6105C392.214 38.3574 392.378 32.5496 392.378 32.5496C392.378 20.7371 382.928 11.0247 371.378 11.0247Z" fill="#C4722E"/>
<path d="M350.51 44.9527C356.383 44.9527 381.911 46.8886 392.017 47.6433C392.214 38.3902 392.378 32.5824 392.378 32.5824C392.378 20.7043 382.928 11.0247 371.378 11.0247H58.5778C47.0278 11.0247 37.5779 20.7371 37.5779 32.5824V59.1276C50.9325 56.2401 84.2371 50.6948 124.859 56.2401C177.884 63.4588 209.416 76.7479 243.705 60.637C277.994 44.5261 301.882 53.3854 320.289 61.0635C331.675 65.8213 366.259 93.0556 391.131 102.867C391.295 85.9681 391.591 69.1682 391.853 56.2401C382.534 49.6776 350.51 44.9527 350.51 44.9527Z" fill="#DA8E42"/>
<path d="M380.894 4.10134C380.894 4.10134 382.633 0.426358 327.574 4.10134C272.515 7.77633 49.0623 4.10134 49.0623 4.10134C42.0405 4.10134 35.7733 7.48102 31.7046 12.6982C37.5452 14.831 43.2545 17.6529 44.5999 20.77C47.553 27.6606 344.866 31.6966 344.866 31.6966L385.783 15.8154C385.783 15.8154 387.194 12.4357 395.627 9.84351C391.689 6.29977 386.538 4.10134 380.894 4.10134Z" fill="#DA8E42"/>
<path d="M385.783 15.8152C385.783 15.8152 291.021 12.7965 266.641 15.8152C242.261 18.8339 282.949 14.4699 282.949 14.4699C282.949 14.4699 258.077 15.0605 268.741 12.4027C279.405 9.74492 386.176 9.9418 388.211 13.2558C390.278 16.5699 385.783 15.8152 385.783 15.8152Z" fill="#FCC168"/>
<path d="M387.456 18.7356C387.456 18.7356 390.246 14.995 398.514 13.0262C398.514 13.0262 396.152 8.9247 391.689 6.98877C391.689 6.98877 382.731 12.9606 382.535 15.0606C382.502 15.0606 387.161 17.1934 387.456 18.7356Z" fill="#FCC168"/>
<path d="M43.9764 15.8153C43.9764 15.8153 138.739 12.7966 163.118 15.8153C187.498 18.8341 228.841 14.47 228.841 14.47C228.841 14.47 171.682 15.0606 161.018 12.4028C150.354 9.74504 43.5499 9.97473 41.5155 13.256C39.4811 16.57 43.9764 15.8153 43.9764 15.8153Z" fill="#FCC168"/>
<path d="M42.3029 18.7356C42.3029 18.7356 39.5138 14.995 31.2451 13.0262C31.2451 13.0262 33.6076 8.9247 38.0701 6.98877C38.0701 6.98877 47.0279 12.9606 47.2247 15.0606C47.2576 15.0606 42.5982 17.1934 42.3029 18.7356Z" fill="#FCC168"/>
<path opacity="0.44" d="M380.894 4.10134C380.894 4.10134 382.633 0.426358 327.574 4.10134C272.515 7.77633 49.0624 4.10134 49.0624 4.10134C45.0921 4.10134 41.3515 5.18415 38.103 7.08727L39.2843 15.1591L59.3326 12.8623L164.037 12.9607C164.037 12.9607 196.784 16.6685 228.841 14.5029C260.899 12.3373 282.982 14.5029 282.982 14.5029L327.049 15.0935L285.968 13.781L382.535 15.0935L393.592 11.0576L394.183 8.66227C390.442 5.80759 385.849 4.10134 380.894 4.10134Z" fill="#FCC168"/>
<path d="M39.0219 33.5339C39.0219 21.7543 48.4062 12.1075 59.8905 12.1075H370.033C381.517 12.1075 390.902 21.7543 390.902 33.5339C390.902 33.5339 390.771 38.9152 390.574 47.5448C391.066 47.5776 391.558 47.6105 392.017 47.6433C392.214 38.3902 392.378 32.5824 392.378 32.5824C392.378 20.7043 382.928 11.0247 371.378 11.0247H58.578C47.0281 11.0247 37.5781 20.7371 37.5781 32.5824V146.212C38.0375 146.048 38.5297 145.916 39.0547 145.752V33.5339H39.0219Z" fill="#FCC168"/>
<path d="M392.378 172.396C390.213 156.252 391.131 91.7431 391.853 56.273C385.389 51.6792 367.9 48.0042 357.86 46.1996C354.021 45.9699 350.903 45.8386 349.296 45.8386C349.296 45.8386 382.502 54.8292 391.755 61.3589C391.033 96.6322 388.769 156.482 390.935 172.527C393.953 194.971 393.199 322.808 390.278 340.855C387.752 356.375 389.688 397.981 390.672 409.4C384.766 409.4 374.331 409.4 369.574 409.4C369.574 409.4 371.313 409.728 373.905 410.319C379.253 410.319 387.227 410.319 392.116 410.319C391.131 398.834 387.719 356.473 390.278 340.855C393.231 322.677 395.43 194.938 392.378 172.396Z" fill="#FCC168"/>
<path d="M39.0219 156.318C44.9609 152.512 58.414 144.276 63.2046 144.276C63.2046 144.276 62.1218 144.21 60.4155 144.177C54.739 145.424 43.025 152.61 37.5781 156.088V361.658C38.0375 361.297 38.5297 360.969 39.0547 360.673V156.318H39.0219Z" fill="#FCC168"/>
<path d="M37.5781 361.691C47.9468 357.819 68.3561 359.525 73.0811 360.837C74.0327 360.706 73.6717 361.231 74.4264 361.231C74.4264 361.231 48.7671 351.026 37.5781 361.691Z" fill="#FCC168"/>
<path d="M370.033 433.714C370.033 433.714 308.411 438.537 285.476 434.764C262.54 430.958 250.005 436.995 224.149 433.714C192.617 426.659 59.8905 433.714 59.8905 433.714C48.4061 433.714 39.0218 424.067 39.0218 412.287L37.5452 373.536C37.0202 373.766 37.9718 373.339 37.5452 373.536V413.239C37.5452 425.117 46.9952 434.797 58.5452 434.797C58.5452 434.797 197.735 431.483 223.755 434.797C249.776 438.111 262.376 430.99 285.476 434.797C308.575 438.603 371.346 434.797 371.346 434.797C382.042 434.797 390.935 426.462 392.181 415.798C391.689 415.634 391.197 415.437 390.672 415.273C389.294 425.609 380.566 433.714 370.033 433.714Z" fill="#FCC168"/>
<path opacity="0.46" d="M373.314 395.684C377.464 395.684 380.828 391.101 380.828 385.447C380.828 379.793 377.464 375.209 373.314 375.209C369.164 375.209 365.8 379.793 365.8 385.447C365.8 391.101 369.164 395.684 373.314 395.684Z" fill="#8B401C"/>
<path opacity="0.46" d="M367.933 362.872C370.905 362.872 373.314 359.875 373.314 356.178C373.314 352.481 370.905 349.484 367.933 349.484C364.961 349.484 362.552 352.481 362.552 356.178C362.552 359.875 364.961 362.872 367.933 362.872Z" fill="#8B401C"/>
<path opacity="0.46" d="M313.432 424.133C316.422 424.133 318.846 422.384 318.846 420.228C318.846 418.071 316.422 416.323 313.432 416.323C310.442 416.323 308.018 418.071 308.018 420.228C308.018 422.384 310.442 424.133 313.432 424.133Z" fill="#8B401C"/>
<path opacity="0.46" d="M264.147 421.344C268.08 421.344 271.268 415.761 271.268 408.875C271.268 401.989 268.08 396.406 264.147 396.406C260.215 396.406 257.027 401.989 257.027 408.875C257.027 415.761 260.215 421.344 264.147 421.344Z" fill="#8B401C"/>
<path opacity="0.46" d="M77.7403 418.325C87.0911 418.325 94.6715 414.77 94.6715 410.384C94.6715 405.999 87.0911 402.444 77.7403 402.444C68.3894 402.444 60.8091 405.999 60.8091 410.384C60.8091 414.77 68.3894 418.325 77.7403 418.325Z" fill="#8B401C"/>
<path opacity="0.46" d="M56.4122 257.085C61.4682 257.085 65.5669 252.869 65.5669 247.668C65.5669 242.467 61.4682 238.25 56.4122 238.25C51.3562 238.25 47.2576 242.467 47.2576 247.668C47.2576 252.869 51.3562 257.085 56.4122 257.085Z" fill="#8B401C"/>
<path opacity="0.46" d="M64.0248 221.943C69.7694 221.943 74.4263 218.975 74.4263 215.315C74.4263 211.654 69.7694 208.687 64.0248 208.687C58.2802 208.687 53.6233 211.654 53.6233 215.315C53.6233 218.975 58.2802 221.943 64.0248 221.943Z" fill="#8B401C"/>
<path opacity="0.46" d="M87.1574 176.924C92.3221 176.924 96.509 174.045 96.509 170.493C96.509 166.941 92.3221 164.062 87.1574 164.062C81.9927 164.062 77.8059 166.941 77.8059 170.493C77.8059 174.045 81.9927 176.924 87.1574 176.924Z" fill="#8B401C"/>
<path opacity="0.46" d="M59.0044 51.384C65.492 51.384 70.7512 47.491 70.7512 42.6887C70.7512 37.8864 65.492 33.9934 59.0044 33.9934C52.5168 33.9934 47.2576 37.8864 47.2576 42.6887C47.2576 47.491 52.5168 51.384 59.0044 51.384Z" fill="#FFC46C"/>
<path opacity="0.46" d="M75.9685 29.8262C80.4083 29.8262 84.0075 27.3435 84.0075 24.2809C84.0075 21.2183 80.4083 18.7356 75.9685 18.7356C71.5286 18.7356 67.9294 21.2183 67.9294 24.2809C67.9294 27.3435 71.5286 29.8262 75.9685 29.8262Z" fill="#FFC46C"/>
<path opacity="0.46" d="M375.644 88.6262C379.957 88.6262 383.453 85.027 383.453 80.5871C383.453 76.1473 379.957 72.5481 375.644 72.5481C371.331 72.5481 367.834 76.1473 367.834 80.5871C367.834 85.027 371.331 88.6262 375.644 88.6262Z" fill="#FFC46C"/>
<path opacity="0.46" d="M359.73 67.5934C362.593 67.5934 364.914 65.2135 364.914 62.2778C364.914 59.342 362.593 56.9622 359.73 56.9622C356.867 56.9622 354.545 59.342 354.545 62.2778C354.545 65.2135 356.867 67.5934 359.73 67.5934Z" fill="#FFC46C"/>
<path opacity="0.46" d="M372.625 39.6699C376.884 39.6699 380.336 37.0403 380.336 33.7965C380.336 30.5527 376.884 27.9231 372.625 27.9231C368.366 27.9231 364.914 30.5527 364.914 33.7965C364.914 37.0403 368.366 39.6699 372.625 39.6699Z" fill="#FFC46C"/>
<path opacity="0.11" d="M392.378 172.396C390.213 156.252 391.131 91.7431 391.853 56.2729C382.567 49.6776 350.51 44.9527 350.51 44.9527C356.383 44.9527 381.911 46.8886 392.017 47.6433C392.214 38.3902 392.378 32.5824 392.378 32.5824C392.378 20.7043 382.928 11.0247 371.378 11.0247H58.5778C47.0278 11.0247 37.5779 20.7371 37.5779 32.5824V146.212C46.4044 143.193 61.9247 144.013 61.9247 144.013C57.1012 144.013 43.5825 152.282 37.5779 156.121V361.691C48.57 353.061 74.4262 361.231 74.4262 361.231C66.1246 361.231 44.5013 370.452 37.5779 373.503V413.206C37.5779 425.084 47.0278 434.764 58.5778 434.764C58.5778 434.764 197.768 431.45 223.788 434.764C249.808 438.078 262.408 430.958 285.508 434.764C308.608 438.57 371.378 434.764 371.378 434.764C382.075 434.764 390.967 426.429 392.214 415.765C384.897 413.009 370.886 410.286 370.886 410.286C375.677 410.286 386.177 410.286 392.116 410.286C391.131 398.801 387.719 356.441 390.278 340.822C393.231 322.677 395.43 194.938 392.378 172.396Z" fill="url(#paint0_linear)"/>
<mask id="mask0" mask-type="alpha" maskUnits="userSpaceOnUse" x="0" y="325" width="78" height="68">
<path d="M37.5 374L37.5 386.5L30.7402 389.716C25.3015 390.237 14.016 390.694 12.3839 388.349C10.3438 385.418 3.4124 368.267 3.21243 355.788C3.05245 345.804 6.23644 337.729 7.84843 334.939C28.3382 338.955 69.3982 347.539 69.7199 349.752C70.122 352.518 81.8123 356.521 65 363C51.5501 368.183 41.1835 371.582 37.5 374Z" fill="#C4C4C4"/>
</mask>
<g mask="url(#mask0)">
<path d="M50.6636 373.048C52.9644 372.846 54.7639 369.195 55.675 367.447C56.645 365.559 57.1407 363.686 56.917 361.6C56.8788 361.156 57.0086 359.68 56.2528 359.764C55.5527 359.866 54.8105 360.953 54.4337 361.458C53.9018 362.171 53.4293 362.928 52.838 363.597C53.5179 362.809 54.5718 361.862 55.7062 362.015C55.6273 363.112 54.6998 364.2 54.0533 365.035C53.0966 366.286 51.8617 367.446 50.5259 368.275C50.5037 368.305 50.5037 368.305 50.5259 368.275C52.0358 365.911 52.103 363.094 52.7487 360.432C53.1303 358.867 53.759 356.816 52.4328 355.526C51.5376 354.65 49.8978 353.935 48.7074 353.579C44.7428 352.354 46.1557 358.795 45.0899 360.936C44.4594 362.246 43.3637 362.723 42.5264 361.335C41.7562 360.044 41.8115 358.421 41.8932 356.979C42.0721 354.384 42.3417 350.956 39.6034 349.606C39.4396 352.304 39.5723 355.039 39.3528 357.719C39.2201 359.539 38.7968 363.731 35.9766 362.181C34.3364 361.281 33.1607 359.387 32.2193 357.829C31.1402 356.053 28.6351 353.027 29.2374 350.795C29.5972 349.445 30.7076 348.887 32.049 348.824C30.3159 347.831 28.6801 345.686 25.8567 347.394C21.4938 349.988 28.3381 357.36 30.2997 359.379C31.5146 360.632 35.9725 365.068 31.4543 364.772C29.2898 364.636 26.1163 364.118 24.3305 362.762C21.5607 360.649 22.4083 357.189 23.1535 354.301C20.8334 354.188 18.6994 354.445 17.3371 356.55C15.4136 359.53 17.4567 363.02 20.1402 364.722C22.8275 366.449 26.1514 366.363 29.2128 366.475C31.6885 366.565 36.061 366.406 37.9449 368.436C39.8584 370.488 34.7063 373.117 33.2145 373.784C30.1308 375.159 29.3099 371.333 29.3785 369.072C29.3789 369.257 28.2694 370.186 28.0884 370.398C27.0689 371.764 26.5982 373.263 25.9201 374.791C25.5848 375.581 25.3891 375.875 26.1057 376.432C26.555 376.791 27.2301 377.063 27.7567 377.225C30.668 378.126 33.9861 375.631 36.3582 374.28C37.3871 373.707 38.546 373.3 39.6083 372.775C40.5744 372.317 44.8495 370.213 44.7371 372.718C44.6988 373.73 42.812 378.055 41.6856 378.14C40.2702 378.24 40.0357 374.805 40.0113 373.908C40.1874 376.213 39.6016 379.105 38.4316 381.075C40.4524 381.497 42.4033 382.166 44.4424 382.532C46.6447 382.927 48.5984 383.252 49.5562 380.915C50.0868 379.646 50.6098 378.325 50.8881 376.961C50.9725 376.631 51.186 372.999 50.6636 373.048Z" fill="#5EA513"/>
<path d="M54.9116 356.914C56.5872 352.592 50.2105 351.533 47.1992 350.673C43.1644 349.512 43.3754 356.975 43.4666 359.425C43.5419 361.4 43.3578 363.412 43.4849 365.38C43.6841 368.025 47.9549 371.721 50.1192 368.758C50.8063 367.837 50.9252 366.47 51.2191 365.394C51.6563 363.848 52.2566 362.331 52.8867 360.836C53.5096 359.474 54.3702 358.29 54.9116 356.914Z" fill="#8CED1F"/>
<path d="M56.765 360.007C58.2591 360.267 59.7437 361.189 60.9317 362.076C62.1198 362.962 63.9471 364.603 64.177 366.185C64.4446 368.026 61.7717 369.13 60.4576 369.745C58.0996 370.829 55.1929 371.781 52.5766 371.817C51.5983 371.827 50.7002 371.295 49.7323 371.012C48.7903 370.725 47.5036 370.436 47.0195 369.474C48.0681 369.401 49.4429 369.386 50.3869 368.958C51.601 368.384 52.6176 367.362 53.4748 366.337C54.2878 365.372 55.0116 364.34 55.5907 363.223C55.8783 362.652 56.1401 362.084 56.3461 361.498C56.4419 361.246 56.5452 361.045 56.5556 360.753C56.5664 360.645 56.4981 359.993 56.3906 359.982C56.4943 359.967 56.6278 359.974 56.765 360.007Z" fill="#8CED1F"/>
<path d="M46.1688 368.723C44.516 367.19 42.989 365.611 42.1721 363.452C41.2695 361.068 41.2075 358.455 41.368 355.917C41.5498 352.977 42.6407 349.006 38.4686 349.268C36.6307 349.376 32.8249 349.426 32.961 352.002C33.0475 354.054 34.0049 356.087 34.6803 358.001C35.4637 360.111 36.5324 362.18 37.9783 363.93C39.8701 366.197 42.5117 367.428 45.2896 368.322C45.5937 368.41 45.8978 368.498 46.2019 368.586L46.1688 368.723Z" fill="#8CED1F"/>
<path d="M39.1565 365.294C39.9028 365.874 41.9961 367.158 40.3081 367.933C39.1902 368.44 37.8244 367.606 36.8154 367.223C35.302 366.649 33.7778 366.182 32.3049 365.522C28.8175 363.937 25.5735 361.84 22.7321 359.234C20.8082 357.475 18.6867 355.268 17.3286 353.029C15.9332 350.716 17.9273 349.314 20.0155 348.561C21.3484 348.076 22.7078 347.772 24.1005 347.517C25.2859 347.292 26.8187 346.724 28.02 346.974C27.6045 348.305 27.5587 349.265 27.9918 350.605C28.4099 351.842 29.1463 352.9 29.8383 354.018C31.5052 356.741 33.0458 359.324 35.2158 361.683C36.4457 363.04 37.6936 364.156 39.1306 365.298C39.1268 365.272 39.1306 365.298 39.1565 365.294Z" fill="#8CED1F"/>
<path d="M37.3307 367.307C37.8687 367.547 39.2817 367.977 39.3462 368.603C39.4032 369.177 38.5969 369.824 38.1862 370.096C36.8801 370.948 35.4326 371.555 33.9441 372.063C30.9671 373.078 27.8553 373.53 24.7618 373.927C22.6057 374.214 21.3875 373.12 20.2123 371.411C18.3007 368.644 17.4099 365.066 16.8794 361.78C16.6574 360.435 16.5284 359.183 16.7289 357.83C17.0211 359.112 18.9228 360.9 19.9808 361.621C21.629 362.758 23.4134 363.558 25.2866 364.239C27.3525 364.971 29.6124 364.669 31.7043 365.398C33.5736 366.053 35.5166 366.485 37.3307 367.307Z" fill="#8CED1F"/>
<path d="M43.5259 368.392C43.7004 368.5 43.8526 368.636 44.0124 368.825C45.4541 370.363 43.5377 373.21 42.6922 374.498C41.3964 376.513 38.9733 378.243 36.9901 379.537C34.8848 380.902 31.6073 378.757 29.556 377.943C28.2613 377.417 26.945 377.105 25.8828 376.173C26.2505 376.517 30.1272 375.133 30.7123 374.968C32.4677 374.475 34.1792 374.226 35.7668 373.307C37.4024 372.354 38.867 371.135 40.183 369.805C41.1331 368.873 42.2676 367.569 43.5259 368.392Z" fill="#8CED1F"/>
<path d="M42.8261 382.343C41.1726 382.08 39.7049 382.003 38.383 380.924C39.2487 380.321 40.0922 379.748 40.8613 379.028C41.9335 378.024 42.9166 376.955 43.8663 375.837C44.7679 374.753 46.0901 372.919 46.4203 371.547C46.4825 371.246 46.4632 370.931 46.5552 370.653C48.8946 371.081 50.009 373.647 50.2921 375.777C50.4467 376.84 50.4569 378.004 50.1593 379.053C50.016 379.524 48.7129 383.129 48.546 383.074C46.7252 382.571 44.6945 382.628 42.8261 382.343Z" fill="#8CED1F"/>
<path opacity="0.49" d="M48.378 371.898C49.4388 372.273 49.9558 374.555 50.125 375.536C50.3733 377.062 50.3138 378.474 49.8134 379.951C49.5337 380.759 49.1428 381.531 48.8075 382.321C49.6667 380.581 49.9436 378.661 49.85 376.741C49.7879 375.585 49.7584 372.65 48.22 372.45C46.8143 374.985 47.1744 381.287 43.4887 381.982C45.338 380.495 46.3699 378.121 46.9721 375.889C47.1118 375.392 47.4655 374.546 47.1307 374.065C46.7663 373.562 46.2034 373.697 45.845 374.146C46.4292 373.611 46.8906 371.319 46.57 370.572C47.1523 370.752 47.6652 371.366 48.1923 371.713L48.378 371.898Z" fill="#5EA513"/>
<path opacity="0.49" d="M40.5892 376.79C42.1938 375.259 43.8611 373.613 44.4969 371.429C44.9341 369.883 44.7292 367.926 42.6655 368.121C41.0761 368.299 39.7714 369.706 38.7995 370.854C37.691 372.154 36.1963 373.165 34.597 373.821C32.8199 374.53 30.9608 375.038 29.1017 375.547C32.2729 375.139 35.976 374.018 38.6622 372.277C39.121 371.972 41.1806 370.111 41.8048 370.761C42.4587 371.434 40.4132 373.029 40.0619 373.345C37.6841 375.385 34.9351 377.241 31.8535 377.901C32.5461 377.747 40.9209 374.517 40.7736 376.419L40.5892 376.79Z" fill="#5EA513"/>
<path opacity="0.49" d="M29.5829 366.289C30.8139 366.56 32.886 366.788 33.3305 368.207C33.9767 370.284 30.8299 371.589 29.3787 372.17C27.9014 372.756 26.3347 373.09 24.7938 373.419C25.7806 373.832 27.5992 373.409 28.6402 373.284C29.9406 373.121 31.2258 372.855 32.4739 372.515C34.9403 371.812 37.2761 370.758 39.4295 369.359C39.7661 369.125 40.1655 368.775 40.0571 368.394C39.9973 368.164 39.7634 368.013 39.5333 367.888C35.6999 365.744 31.6437 366.439 27.532 365.66C25.3519 365.235 22.6188 364.468 20.807 363.116C20.0683 362.588 19.603 361.755 18.8643 361.227C21.3005 364.871 25.5598 365.391 29.5829 366.289Z" fill="#5EA513"/>
<path opacity="0.49" d="M40.9411 367.735C41.9247 366.851 39.5316 365.69 38.9376 365.246C35.8411 362.89 32.8428 359.751 30.8407 356.361C30.0705 355.069 29.3445 353.719 28.5964 352.397C28.2353 351.735 28.0143 350.761 27.5127 350.225C28.1527 352.806 29.4184 355.138 30.8802 357.361C31.561 358.401 32.4157 359.363 32.8224 360.521C33.2141 361.577 33.876 362.487 34.2639 363.516C32.8481 363.43 31.3012 362.808 30.1061 362.055C28.588 361.084 27.3911 359.59 26.0319 358.437C27.1581 359.809 27.6809 361.401 29.0551 362.658C30.0357 363.575 31.0351 364.621 32.3807 364.769C33.6151 364.881 34.6235 365.079 35.7626 365.628C36.4155 365.931 37.0464 366.263 37.6588 366.65C38.2118 366.994 38.5988 367.652 39.1184 367.947C39.5785 368.198 40.4121 368.104 40.8412 367.776C40.9152 367.739 40.9411 367.735 40.9411 367.735Z" fill="#5EA513"/>
<path opacity="0.49" d="M34.731 351.426C36.7997 353.27 37.8754 355.206 38.6861 357.869C38.8879 358.528 39.7115 363.466 40.888 362.633C41.2468 362.369 41.1036 361.383 41.0805 361.042C41.0033 359.782 40.7219 358.393 41.045 357.155C41.2175 357.977 41.0642 358.926 41.2145 359.778C41.3837 360.76 41.6269 361.704 41.8738 362.675C42.4648 364.919 43.7391 366.217 44.8408 368.148C42.6135 368.128 39.6175 365.915 38.2942 364.281C36.614 362.195 35.3922 359.618 34.2708 357.186C33.7268 355.994 33.4865 354.705 33.3758 353.397C33.7099 355.149 34.507 356.808 35.3409 358.355C36.1376 359.828 37.0092 361.634 38.1944 362.865C38.6165 361.215 37.6648 358.494 37.2718 356.883C36.8038 354.938 36.2538 352.794 34.731 351.426Z" fill="#5EA513"/>
<path opacity="0.49" d="M44.1354 361.658C44.0495 362.888 44.0267 364.189 43.8927 365.453C43.8314 366.124 43.7917 366.58 44.149 367.216C45.0683 368.804 47.0102 370.322 48.9466 369.617C51.4088 368.703 51.2286 364.731 51.9869 362.661C52.5797 361.092 53.4507 359.615 54.2401 358.123C53.4695 359.745 52.7881 361.433 51.7577 362.906C50.9231 364.087 50.3709 365.571 49.48 363.449C48.7866 361.776 48.9188 359.771 48.7921 357.988C48.7041 356.836 48.6641 355.65 48.7613 354.498C48.8586 353.345 49.3155 352.299 49.5462 351.153C47.1804 355.098 48.9301 359.848 47.7397 364.046C47.5156 364.873 46.88 365.601 46.6003 366.41C46.3537 367.081 44.7801 364.635 44.7391 364.536C44.3813 363.714 43.9486 362.559 44.1354 361.658Z" fill="#5EA513"/>
<path opacity="0.49" d="M47.6579 369.858C49.9481 372.861 52.8874 371.587 55.6486 370.179C58.3097 368.812 60.7173 366.794 61.6403 363.853C60.9145 365.6 58.7436 367.425 57.2899 368.537C56.4096 369.221 54.4458 370.83 53.2407 370.555C53.3162 369.618 54.0999 368.815 54.487 368.018C54.3055 368.044 54.1273 367.911 53.9236 367.967C53.588 367.116 54.3854 365.861 54.8357 365.134C54.408 366.017 53.3245 366.942 52.6332 367.651C51.528 368.792 49.7183 369.823 48.1327 370.027L47.6579 369.858Z" fill="#5EA513"/>
<path opacity="0.49" d="M50.3588 371.133C48.9972 370.51 47.6031 370.21 46.3264 369.442C44.9309 368.585 43.4467 367.848 41.9258 367.222C44.0186 368.321 45.7643 369.947 47.7279 371.251C48.5779 371.815 49.443 372.484 50.3077 372.967C50.5378 373.093 53.5971 373.919 53.5293 373.452C53.3078 372.293 51.2937 371.553 50.3588 371.133Z" fill="#5EA513"/>
<path opacity="0.49" d="M23.8936 355.385C26.7707 358.965 29.4939 364.766 34.4656 365.632C35.4962 365.8 36.5453 365.912 37.5504 366.269C37.606 366.287 37.8361 366.413 38.1218 366.557C38.2147 366.649 38.2816 366.745 38.3486 366.842C38.0751 367.146 37.7347 367.354 37.3532 367.463C36.4928 367.191 35.6098 366.763 35.0129 366.664C33.5225 366.431 32.1293 366.501 30.598 366.168C31.9709 366.868 33.4527 366.679 34.903 367.183C35.7969 367.504 36.7983 367.835 37.7921 368.114C38.289 368.254 38.7379 368.427 38.9906 368.708C38.569 369.087 38.1404 369.599 37.6962 369.823C37.1337 370.143 36.3813 370.067 35.774 370.261C35.0149 370.504 34.3189 370.817 33.6268 371.156C32.3645 371.763 31.1764 372.333 29.7647 372.458C32.0047 373.113 33.6941 371.437 35.6678 370.806C36.7046 370.47 37.9088 370.374 38.8188 369.712C38.9891 369.608 39.1258 369.456 39.2588 369.278C39.2927 369.511 39.2564 369.808 39.1498 370.167C40.1961 369.168 40.9529 367.999 42.5847 368.477C43.3598 368.708 44.3927 369.803 43.4572 370.653C45.4687 368.825 47.1398 371.76 47.1665 373.583C47.2467 373.042 47.4887 371.974 48.0554 371.865C48.7259 371.741 49.573 372.651 50.1407 372.913C49.7437 372.732 49.3237 372.21 48.9451 371.974C48.4812 371.697 47.9984 371.291 47.5048 370.992C45.7604 369.921 44.2862 368.706 42.697 367.428C45.5489 368.284 47.8807 370.116 50.4449 371.544C51.3949 372.068 52.5222 372.355 53.6113 372.196C54.7005 372.038 55.4841 371.236 56.4804 370.985C54.7694 371.419 52.8834 371.561 51.1517 371.124C49.2309 370.662 51.8298 369.595 52.4207 368.742C50.7629 369.724 48.1974 370.838 47.6465 368.323C47.2007 366.349 48.1853 364.379 48.4585 362.433C48.6987 360.624 48.9685 358.837 48.5453 357.018C47.9246 359.306 48.3421 361.814 47.7587 364.176C47.5714 364.892 47.4369 365.971 46.8527 366.506C45.7805 367.509 44.4421 365.77 44.1357 364.756C44.1446 365.364 45.2742 366.576 44.449 367.093C43.7979 367.532 42.9578 366.489 42.6047 366.064C41.5676 364.758 40.9261 363.077 40.3552 361.519C39.6873 359.656 39.1415 357.723 38.2996 355.939C38.7177 357.176 38.9581 358.465 39.1607 359.495C39.4835 361.169 39.6177 363.003 40.4219 364.528C40.8537 365.312 42.2902 366.269 41.1878 367.064C41.0214 367.194 40.7918 367.254 40.5546 367.262C39.3717 366.958 38.0668 365.267 36.9461 364.662C35.4247 363.851 33.6275 363.874 32.073 363.199C30.7412 362.598 29.4782 361.379 28.4787 360.332C27.104 358.89 26.4027 356.98 24.9761 355.545C23.5495 354.111 22.3564 352.643 21.0703 351.082C22.0042 352.588 22.7971 354.035 23.8936 355.385Z" fill="#5EA513"/>
<path d="M25.1343 361.189C25.6736 361.985 27.0762 362.708 27.9555 363.109C25.6477 361.988 23.8407 359.577 22.0686 357.769C20.5157 356.194 18.8364 354.478 17.9753 352.379C17.7627 351.828 17.5982 351.243 17.6411 350.627C17.6879 350.038 17.9458 349.444 18.4527 349.106C17.728 349.767 16.718 350.47 16.6057 351.519C16.508 352.487 18.1693 354.443 18.7308 355.209C20.9799 358.112 23.8435 360.688 27.0461 362.5C27.4506 362.733 27.8404 363.047 28.2006 363.338C27.9597 363.321 27.6999 363.173 27.5882 362.951L25.1343 361.189Z" fill="#CEF952"/>
<path d="M41.5958 352.017C41.5534 351.362 41.4592 350.713 41.1023 350.262C40.1208 348.975 39.0543 349.289 37.6832 349.329C36.4975 349.369 34.4748 349.663 33.6133 350.477C34.1273 350.005 34.9646 349.936 35.6464 349.89C36.3244 349.818 37.0099 349.798 37.6808 349.859C39.0486 349.978 40.3286 350.586 40.7693 351.979C40.9786 352.69 41.036 353.449 41.0897 354.183C41.1674 355.628 41.2709 357.069 41.3448 358.488C41.3591 356.765 41.5069 355.049 41.599 353.314C41.6018 352.97 41.6118 352.492 41.5958 352.017Z" fill="#CEF952"/>
<path d="M52.578 352.698C52.0476 352.511 51.4804 352.434 51.0546 352.602C50.577 352.777 50.2446 353.223 49.9937 353.683C49.5325 354.518 49.0534 355.594 48.9519 356.535C48.825 357.666 48.939 358.814 49.0751 359.933C48.4648 357.374 48.573 354.657 49.3488 352.161C49.3819 352.024 49.437 351.857 49.4182 351.728C49.347 351.42 49.0057 351.258 48.6757 351.174C48.1787 351.034 47.6521 350.872 47.1259 350.896C46.1995 350.898 45.2965 351.426 44.7128 352.147C44.129 352.867 43.8126 353.787 43.7111 354.729C43.7121 353.643 44.0319 352.564 44.5855 351.636C45.2315 350.615 46.1203 350.353 47.2731 350.451C47.8624 350.497 48.415 350.655 48.927 350.899C49.3796 351.098 49.8326 351.482 50.2777 351.629C50.8303 351.787 51.3899 351.812 51.9538 352.048C52.4323 352.243 52.9184 352.49 53.3342 352.8C53.9245 353.217 54.7448 353.76 54.8984 354.453C54.8197 354.094 54.2219 353.624 53.9546 353.425C53.5944 353.133 53.0787 352.864 52.578 352.698Z" fill="#CEF952"/>
<path d="M52.1294 363.276C52.8004 361.881 53.5271 360.504 54.1425 359.091C54.7174 357.763 55.3696 356.238 55.051 354.775C55.231 355.649 54.9924 356.558 54.6349 357.378C54.2774 358.198 53.7493 358.936 53.3065 359.716C52.1479 361.764 51.4456 364.038 51.2549 366.369C51.2819 365.279 51.6611 364.245 52.1294 363.276Z" fill="#CEF952"/>
<path d="M59.7437 361.189C59.1389 360.854 58.5118 360.548 57.8367 360.275C57.6698 360.22 56.3718 359.852 56.3492 359.697C56.6523 360.871 56.1995 362.128 55.5832 363.171C56.3296 362.295 56.623 361.034 57.9238 361.057C58.6391 361.059 60.524 362.003 60.8851 362.665C61.916 364.475 57.7403 367.809 56.4978 368.917C58.538 368.196 59.4685 365.307 61.3238 364.773C62.2644 364.504 63.1187 365.28 63.3062 366.206C63.5725 367.491 62.389 368.457 61.4455 369.071C61.2272 369.209 61.0424 369.395 60.7906 369.484C61.8684 369.248 62.968 368.797 63.6291 367.88C64.4231 366.785 64.1427 365.766 63.4804 364.671C62.9967 363.894 62.291 363.229 61.6187 362.611C61.0318 362.035 60.408 361.569 59.7437 361.189Z" fill="#CEF952"/>
<path d="M46.7851 375.148C46.5114 376.909 45.83 378.597 44.7959 380.045C44.3526 380.639 43.8538 381.214 43.2172 381.572C41.6221 382.439 39.8924 381.287 38.3054 380.935C38.8099 381.126 39.3148 381.503 39.8009 381.75C41.7635 382.683 44.0875 382.822 46.2115 383.043C47.0714 383.13 47.9833 383.209 48.7084 382.733C47.8749 382.828 47.0295 382.659 46.2176 382.539C45.8914 382.48 45.5651 382.422 45.2389 382.363C44.6123 382.243 43.9895 382.148 43.3959 381.89C43.5628 381.945 44.6275 380.89 44.7864 380.708C45.3334 380.099 45.7653 379.427 46.1044 378.663C46.7382 377.194 46.9232 375.552 46.8526 373.973C46.887 374.392 46.836 374.77 46.7851 375.148Z" fill="#CEF952"/>
<path d="M34.8919 376.215C36.9387 375.176 38.432 373.608 40.1964 372.266C38.1231 374.58 34.1387 378.866 30.6055 378.241C30.3051 378.179 29.9973 378.065 29.6894 377.951C28.8771 377.645 28.0647 377.339 27.2524 377.034C28.375 376.924 29.4622 377.481 30.5815 377.53C32.1902 377.667 33.5632 376.911 34.8919 376.215Z" fill="#CEF952"/>
<path d="M18.5507 367.813C17.2798 364.899 16.2523 361.474 16.6298 358.242C16.789 359.701 17.2297 361.094 17.6483 362.516C18.459 365.178 19.2801 367.548 20.8164 369.92C21.3298 370.719 21.9469 371.503 22.7375 372.024C23.4649 372.474 24.3438 372.69 25.2075 372.803C27.2353 373.091 29.3178 373.027 31.3179 372.577C29.6738 373.107 27.9849 373.512 26.281 373.812C24.7288 374.064 22.543 374.329 21.3319 373.102C20.5592 372.34 20.1637 371.259 19.6796 370.297C19.3369 369.579 18.8674 368.535 18.5507 367.813Z" fill="#CEF952"/>
<path opacity="0.49" d="M47.7106 370.22C48.1967 370.468 48.6828 370.715 49.1467 370.992C50.2192 371.63 51.3474 372.287 52.5709 372.506C53.1419 372.609 53.6977 372.607 54.2682 372.524C52.7779 372.291 51.2725 371.954 50.0547 371.045C48.6291 369.981 47.7919 368.593 46.104 367.912C44.6166 367.334 42.6218 366.909 40.9834 366.75C42.1705 367.266 43.2836 367.819 44.3897 368.505C45.4401 369.174 46.5975 369.667 47.7106 370.22Z" fill="#5EA513"/>
<path opacity="0.22" d="M18.1247 349.392C17.4665 349.964 16.712 350.603 16.603 351.493C16.5016 352.434 18.1073 354.372 18.6946 355.134C18.1878 355.473 17.7219 355.911 17.3343 356.524C17.0499 356.936 16.8769 357.385 16.7557 357.826L16.7519 357.8C16.7557 357.826 16.7335 357.856 16.741 357.907C16.708 358.045 16.675 358.182 16.6458 358.345C16.642 358.319 16.6344 358.267 16.6307 358.241C16.3551 360.717 16.8914 363.314 17.746 365.732C18.2955 367.691 19.0228 369.598 20.1052 371.214C20.4441 371.906 20.783 372.599 21.3365 373.127C22.5476 374.355 24.7594 374.086 26.2856 373.838C26.3115 373.834 26.3374 373.83 26.3634 373.826C26.2271 374.164 26.087 374.476 25.9507 374.813C25.6154 375.603 25.4198 375.897 26.1363 376.455C26.5262 376.769 27.1198 377.027 27.6205 377.192C28.3216 377.461 29.0486 377.726 29.7496 377.995C29.8053 378.013 29.8906 378.054 29.9462 378.072C32.0089 378.964 35.03 380.802 37.0169 379.533C37.8864 378.957 38.852 378.313 39.7507 377.574C39.5201 378.719 39.1263 379.836 38.6283 380.782C38.558 380.845 38.484 380.882 38.4138 380.946C38.4435 380.968 38.4435 380.968 38.4732 380.99C38.4435 380.968 38.3916 380.975 38.3619 380.953C38.4175 380.972 38.4472 380.994 38.5029 381.012C38.4807 381.042 38.4845 381.068 38.4585 381.071C38.5401 381.086 38.5957 381.105 38.6773 381.119C39.0002 381.337 39.3156 381.503 39.6273 381.643C39.7126 381.684 39.772 381.728 39.8574 381.768C41.82 382.701 44.144 382.84 46.268 383.061C46.9426 383.148 47.6654 383.202 48.2949 382.978C48.4024 382.989 48.4877 383.03 48.5952 383.04C48.6767 383.055 48.9899 382.295 49.3176 381.453C49.4247 381.278 49.5058 381.107 49.5831 380.911C50.1137 379.642 50.6367 378.322 50.915 376.957C50.9772 376.657 51.1548 373.506 50.7758 373.085C51.6881 373.349 53.6051 373.786 53.5264 373.426C53.4514 373.093 53.2506 372.805 52.9461 372.531C53.3761 372.574 53.8244 372.562 54.2653 372.498C53.8315 372.429 53.4237 372.356 52.9862 372.26C53.1715 372.26 53.3568 372.26 53.5383 372.233C54.2644 372.128 54.8453 371.752 55.4337 371.428C57.1782 371.042 58.8888 370.423 60.4028 369.726C60.6249 369.614 60.8988 369.495 61.1987 369.372C62.1134 369.107 63.0314 368.682 63.6039 367.884C63.7331 367.68 63.8401 367.505 63.9175 367.309C64.1056 366.963 64.1863 366.607 64.126 366.193C63.994 365.285 63.3284 364.349 62.5482 363.536C62.2361 363.21 61.9018 362.915 61.5935 362.615C60.9806 362.042 60.3607 361.603 59.6926 361.197C59.0878 360.861 58.4607 360.555 57.7856 360.282C57.6743 360.246 56.9549 360.032 56.5617 359.878C56.4985 359.808 56.4132 359.767 56.3316 359.752C56.3019 359.73 56.3019 359.73 56.2981 359.704C56.3019 359.73 56.3019 359.73 56.3057 359.756C56.2797 359.76 56.2538 359.764 56.1982 359.745C55.498 359.847 54.7558 360.935 54.379 361.44C53.8471 362.152 53.3746 362.91 52.7833 363.578C53.4633 362.791 54.5171 361.843 55.6515 361.996C55.5727 363.093 54.6451 364.181 53.9987 365.017C53.0381 366.242 51.807 367.427 50.4712 368.257C51.4865 366.679 51.86 364.877 52.178 363.057C52.8307 361.718 53.513 360.4 54.11 359.043C54.4453 358.252 54.8028 357.432 54.9934 356.557C55.3023 355.586 55.1633 354.812 54.7725 354.127C54.5264 353.527 53.799 353.077 53.294 352.7C52.8523 352.394 52.3921 352.143 51.9136 351.947C51.6614 351.852 51.387 351.786 51.1423 351.742C50.6675 351.573 50.1965 351.429 49.7255 351.286C49.6402 351.245 49.5808 351.201 49.4955 351.16C49.4917 351.134 49.5176 351.131 49.5139 351.105C49.5176 351.131 49.4917 351.134 49.4955 351.16C49.2913 351.031 49.1169 350.924 48.9165 350.821C48.3786 350.581 47.826 350.423 47.2626 350.373C46.2989 350.301 45.5026 350.47 44.9113 351.138C44.8632 351.172 44.8188 351.231 44.8004 351.287C44.575 351.558 44.3831 351.877 44.2284 352.27C44.0294 352.723 43.8861 353.194 43.7983 353.683C43.3771 355.704 43.4424 358.157 43.4861 359.369C43.5106 360.265 43.5128 361.192 43.4854 362.096C43.1591 362.038 42.8286 361.768 42.5199 361.283C41.7496 359.992 41.8049 358.369 41.8866 356.927C41.9976 355.322 42.1449 353.42 41.6037 351.884C41.5383 350.887 41.2286 350.032 40.4234 349.593C39.9298 349.294 39.4182 349.236 38.8623 349.237C38.7289 349.23 38.5992 349.249 38.4658 349.242C38.2027 349.254 37.9137 349.269 37.5728 349.292C37.206 349.319 36.7873 349.353 36.3465 349.417C34.6312 349.64 32.8612 350.215 32.9323 351.979C32.9868 353.083 33.2748 354.154 33.6406 355.213C33.7904 355.879 33.9884 356.513 34.2642 357.134C34.4169 357.456 34.5696 357.778 34.7224 358.101C35.2856 359.607 36.0045 361.092 36.8898 362.446C36.6192 362.406 36.3151 362.318 35.97 362.129C35.6546 361.963 35.3576 361.742 35.0865 361.516C34.046 360.37 33.1612 359.201 32.3466 357.969C32.3093 357.895 32.2759 357.847 32.2386 357.773C31.9261 357.262 31.491 356.637 31.0445 355.934C30.8027 355.546 30.5609 355.157 30.319 354.769C29.5375 353.399 28.9299 351.952 29.2567 350.739C29.6166 349.389 30.727 348.831 32.0683 348.768C30.5394 347.905 29.0935 346.155 26.8681 346.876C25.927 346.96 24.9161 347.292 24.0938 347.465C22.7048 347.746 21.3417 348.024 20.0088 348.509C19.2535 348.777 18.5132 349.15 17.9399 349.577C18.0139 349.54 18.0544 349.455 18.1247 349.392ZM32.4748 372.514C33.2377 372.298 33.9931 372.029 34.7225 371.764C35.6777 371.413 36.5957 370.989 37.4765 370.49C37.6986 370.378 37.9428 370.237 38.1611 370.099C37.3906 371.72 34.2777 373.259 33.1857 373.762C31.7679 374.391 30.8255 373.919 30.2452 373.024C30.9934 372.889 31.7341 372.702 32.4748 372.514ZM25.2953 361.377C25.7747 361.943 26.669 362.449 27.4111 362.817C27.4705 362.862 27.5559 362.902 27.6153 362.947C27.7194 363.117 27.9236 363.246 28.1126 363.272C28.8995 363.766 29.7344 364.227 30.5359 364.641C28.4416 364.442 25.8462 363.892 24.2979 362.714C23.017 361.735 22.5211 360.51 22.4029 359.15C23.3425 359.967 24.3005 360.728 25.2953 361.377ZM42.2757 375.088C43.1665 374.111 43.9605 373.016 44.3836 371.737C44.6471 371.91 44.7999 372.232 44.764 372.714C44.7286 373.381 43.9589 375.373 43.0988 376.743C42.6886 377.2 42.2524 377.66 41.8125 378.095C41.7606 378.102 41.7347 378.106 41.6828 378.114C41.1048 378.145 40.7366 377.616 40.5014 376.909C41.1634 376.362 41.7622 375.745 42.2757 375.088Z" fill="url(#paint1_radial)"/>
</g>
<defs>
<linearGradient id="paint0_linear" x1="218.379" y1="32.5897" x2="211.285" y2="422.755" gradientUnits="userSpaceOnUse">
<stop stop-color="white"/>
<stop offset="1"/>
</linearGradient>
<radialGradient id="paint1_radial" cx="0" cy="0" r="1" gradientUnits="userSpaceOnUse" gradientTransform="translate(31.7058 375.598) rotate(-146.043) scale(21.3348)">
<stop stop-color="white"/>
<stop offset="1" stop-opacity="0"/>
</radialGradient>
</defs>
</svg>
