<svg width="20" height="14" viewBox="0 0 20 14" fill="none" xmlns="http://www.w3.org/2000/svg">
<g clip-path="url(#clip0)">
<path d="M0.34375 13.1016H19.6523C19.8438 13.1016 19.9961 12.9453 19.9961 12.7578V0.34375C19.9961 0.152344 19.8398 0 19.6523 0H0.34375C0.15625 0 0 0.15625 0 0.34375V12.7578C0 12.9492 0.15625 13.1016 0.34375 13.1016Z" fill="#C8414B"/>
<path d="M20 2.75781H0V10.3437H20V2.75781Z" fill="#FFD250"/>
<path d="M8.44926 6.55078L8.74223 5.23438C8.76957 5.11328 8.67582 5 8.55473 5H8.3477C8.2227 5 8.13285 5.11328 8.1602 5.23438L8.44926 6.55078Z" fill="#C8414B"/>
<path d="M8.79297 5.86328H8.10156V8.79297H8.79297V5.86328Z" fill="#F5F5F5"/>
<path d="M8.96484 5.51562H7.92969V5.85938H8.96484V5.51562Z" fill="#FAB446"/>
<path d="M8.96484 6.55078H7.24219V6.89453H8.96484V6.55078Z" fill="#C8414B"/>
<path d="M8.96484 7.92969L7.92969 7.58594V7.24219L8.96484 7.58594V7.92969Z" fill="#C8414B"/>
<path d="M3.27739 6.55078L3.57036 5.23438C3.5977 5.11328 3.50395 5 3.38286 5H3.17582C3.05082 5 2.96098 5.11328 2.98832 5.23438L3.27739 6.55078Z" fill="#C8414B"/>
<path d="M4.48438 5.51562C4.29297 5.51562 4.14062 5.67188 4.14062 5.85938V8.10156C4.14062 8.51953 4.53125 9.30859 5.86328 9.30859C7.19531 9.30859 7.58594 8.51953 7.58594 8.10156V5.85938C7.58594 5.66797 7.42969 5.51562 7.24219 5.51562H4.48438Z" fill="#F5F5F5"/>
<path d="M5.86328 7.24219H4.14062V5.86328C4.14062 5.67188 4.29688 5.51953 4.48438 5.51953H5.86328V7.24219Z" fill="#C8414B"/>
<path d="M5.86328 7.24219H7.58594V8.10547C7.58594 8.58203 7.19922 8.96875 6.72266 8.96875C6.24609 8.96875 5.85938 8.58203 5.85938 8.10547V7.24219H5.86328Z" fill="#C8414B"/>
<path d="M4.13672 7.24219H5.85938V8.10547C5.85938 8.58203 5.47266 8.96875 4.99609 8.96875C4.51953 8.96875 4.13281 8.58203 4.13281 8.10547V7.24219H4.13672Z" fill="#FAB446"/>
<path d="M5.51562 8.78906V7.24219H5.17188V8.94922C5.30078 8.92188 5.41797 8.86719 5.51562 8.78906Z" fill="#C8414B"/>
<path d="M4.82812 8.94922V7.24219H4.48438V8.78906C4.58203 8.86719 4.69922 8.92188 4.82812 8.94922Z" fill="#C8414B"/>
<path d="M5.51953 6.55078H4.48438V6.89453H5.51953V6.55078Z" fill="#FFB441"/>
<path d="M5.51953 5.86328H4.48438V6.20703H5.51953V5.86328Z" fill="#FAB446"/>
<path d="M5.34766 6.06641H4.65625V6.69141H5.34766V6.06641Z" fill="#FAB446"/>
<path d="M3.62109 5.86328H2.92969V8.79297H3.62109V5.86328Z" fill="#F5F5F5"/>
<path d="M3.79297 8.62109H2.75781V8.96483H3.79297V8.62109Z" fill="#FAB446"/>
<path d="M3.79297 5.51562H2.75781V5.85938H3.79297V5.51562Z" fill="#FAB446"/>
<path d="M3.96484 8.96484H2.58594V9.30859H3.96484V8.96484Z" fill="#5064AA"/>
<path d="M9.13672 8.62109H8.10156V8.96483H9.13672V8.62109Z" fill="#FAB446"/>
<path d="M9.13672 8.96484H7.75781V9.30859H9.13672V8.96484Z" fill="#5064AA"/>
<path d="M6.89845 5.17188H4.82812V5.51562H6.89845V5.17188Z" fill="#FAB446"/>
<path d="M6.03516 4.13672H5.69141V5.17187H6.03516V4.13672Z" fill="#FFB441"/>
<path d="M5.51562 4.65624C5.23047 4.65624 5 4.42578 5 4.14062C5 3.85547 5.23047 3.625 5.51562 3.625C5.80078 3.625 6.03125 3.85547 6.03125 4.14062C6.03515 4.42187 5.80078 4.65624 5.51562 4.65624ZM5.51562 3.96484C5.42187 3.96484 5.34375 4.04297 5.34375 4.13672C5.34375 4.23046 5.42187 4.30859 5.51562 4.30859C5.60937 4.30859 5.6875 4.23046 5.6875 4.13672C5.6914 4.04297 5.61328 3.96484 5.51562 3.96484Z" fill="#F5F5F5"/>
<path d="M6.20703 4.65624C5.92187 4.65624 5.69141 4.42578 5.69141 4.14062C5.69141 3.85547 5.92187 3.625 6.20703 3.625C6.49219 3.625 6.72266 3.85547 6.72266 4.14062C6.72266 4.42578 6.49219 4.65624 6.20703 4.65624ZM6.20703 3.96484C6.11328 3.96484 6.03516 4.04297 6.03516 4.13672C6.03516 4.23046 6.11328 4.30859 6.20703 4.30859C6.30078 4.30859 6.37891 4.23046 6.37891 4.13672C6.37891 4.04297 6.30078 3.96484 6.20703 3.96484Z" fill="#F5F5F5"/>
<path d="M6.89844 4.99999C6.61328 4.99999 6.38281 4.76953 6.38281 4.48437C6.38281 4.19922 6.61328 3.96875 6.89844 3.96875C7.18359 3.96875 7.41406 4.19922 7.41406 4.48437C7.41406 4.76953 7.18359 4.99999 6.89844 4.99999ZM6.89844 4.30859C6.80469 4.30859 6.72656 4.38672 6.72656 4.48046C6.72656 4.57421 6.80469 4.65234 6.89844 4.65234C6.99219 4.65234 7.07031 4.57421 7.07031 4.48046C7.07031 4.38672 6.99219 4.30859 6.89844 4.30859Z" fill="#F5F5F5"/>
<path d="M4.82813 4.99999C4.54297 4.99999 4.3125 4.76953 4.3125 4.48437C4.3125 4.19922 4.54297 3.96875 4.82813 3.96875C5.11329 3.96875 5.34376 4.19922 5.34376 4.48437C5.34376 4.76953 5.11329 4.99999 4.82813 4.99999ZM4.82813 4.30859C4.73438 4.30859 4.65625 4.38672 4.65625 4.48046C4.65625 4.57421 4.73438 4.65234 4.82813 4.65234C4.92188 4.65234 5.00001 4.57421 5.00001 4.48046C5.00001 4.38672 4.92188 4.30859 4.82813 4.30859Z" fill="#F5F5F5"/>
<path d="M6.89844 7.92969V8.10156C6.89844 8.19531 6.82031 8.27344 6.72656 8.27344C6.63281 8.27344 6.55469 8.19531 6.55469 8.10156V7.92969H6.89844ZM7.24219 7.58594H6.20703V8.10156C6.20703 8.38672 6.4375 8.61719 6.72266 8.61719C7.00781 8.61719 7.23828 8.38672 7.23828 8.10156L7.24219 7.58594Z" fill="#FAB446"/>
<path d="M6.72266 6.89844C6.53125 6.89844 6.37891 6.74219 6.37891 6.55469V6.21094C6.37891 6.01953 6.53516 5.86719 6.72266 5.86719C6.91407 5.86719 7.06641 6.02344 7.06641 6.21094V6.55469C7.07032 6.74219 6.91407 6.89844 6.72266 6.89844Z" fill="#FFA0D2"/>
<path d="M5.86328 7.75783C6.14805 7.75783 6.37891 7.52697 6.37891 7.24219C6.37891 6.95742 6.14805 6.72656 5.86328 6.72656C5.57851 6.72656 5.34766 6.95742 5.34766 7.24219C5.34766 7.52697 5.57851 7.75783 5.86328 7.75783Z" fill="#5064AA"/>
<path d="M6.03516 3.44922H5.69141V4.48438H6.03516V3.44922Z" fill="#FAB446"/>
<path d="M4.82812 5.17187L4.48438 4.82812L4.6875 4.625C5 4.3125 5.42188 4.13672 5.86328 4.13672C6.30469 4.13672 6.72656 4.3125 7.03906 4.625L7.24219 4.82812L6.89844 5.17187H4.82812Z" fill="#C8414B"/>
<path d="M5.86328 5C5.95821 5 6.03516 4.92305 6.03516 4.82812C6.03516 4.7332 5.95821 4.65625 5.86328 4.65625C5.76836 4.65625 5.69141 4.7332 5.69141 4.82812C5.69141 4.92305 5.76836 5 5.86328 5Z" fill="#FFD250"/>
<path d="M5.17187 5C5.2668 5 5.34375 4.92305 5.34375 4.82812C5.34375 4.7332 5.2668 4.65625 5.17187 4.65625C5.07695 4.65625 5 4.7332 5 4.82812C5 4.92305 5.07695 5 5.17187 5Z" fill="#FFD250"/>
<path d="M6.55078 5C6.6457 5 6.72266 4.92305 6.72266 4.82812C6.72266 4.7332 6.6457 4.65625 6.55078 4.65625C6.45586 4.65625 6.37891 4.7332 6.37891 4.82812C6.37891 4.92305 6.45586 5 6.55078 5Z" fill="#FFD250"/>
<path d="M4.48047 6.55078H2.75781V6.89453H4.48047V6.55078Z" fill="#C8414B"/>
<path d="M2.75781 7.92969L3.79297 7.58594V7.24219L2.75781 7.58594V7.92969Z" fill="#C8414B"/>
</g>
<defs>
<clipPath id="clip0">
<rect width="20" height="13.1016" fill="white"/>
</clipPath>
</defs>
</svg>
