<svg width="20" height="14" viewBox="0 0 20 14" fill="none" xmlns="http://www.w3.org/2000/svg">
<g clip-path="url(#clip0)">
<path d="M18.5039 0H1.49609C0.671875 0 0 0.671875 0 1.49609V11.6055C0 12.4336 0.671875 13.1016 1.49609 13.1016H18.5C19.3281 13.1016 19.9961 12.4297 19.9961 11.6055V1.49609C20 0.671875 19.3281 0 18.5039 0Z" fill="#41479B"/>
<path d="M19.9805 1.25C19.8633 0.539062 19.2461 0 18.5039 0H18.1133L11.7227 4.18359V0H8.27344V4.18359L1.88672 0H1.49609C0.753906 0 0.140625 0.539062 0.0195312 1.25L5.48047 4.82812H0V8.27734H5.48047L0.0195312 11.8516C0.136719 12.5625 0.753906 13.1016 1.49609 13.1016H1.88672L8.27344 8.91797V13.1016H11.7227V8.91797L18.1094 13.1016H18.5C19.2422 13.1016 19.8594 12.5625 19.9766 11.8516L14.5156 8.27344H20V4.82422H14.5195L19.9805 1.25Z" fill="#F5F5F5"/>
<path d="M11.0352 0H8.96484V5.51562H0V7.58594H8.96484V13.1016H11.0352V7.58594H20V5.51562H11.0352V0Z" fill="#FF4B55"/>
<path d="M0.96875 13.0078L8.25781 8.27734H6.99219L0.359375 12.5781C0.523438 12.7695 0.730469 12.918 0.96875 13.0078Z" fill="#FF4B55"/>
<path d="M13.5312 8.27734H12.2656L19.3242 12.8594C19.5234 12.7305 19.6875 12.5547 19.8047 12.3477L13.5312 8.27734Z" fill="#FF4B55"/>
<path d="M0.15625 0.828124L6.31641 4.82812H7.58203L0.605469 0.296875C0.417969 0.433594 0.261719 0.617187 0.15625 0.828124Z" fill="#FF4B55"/>
<path d="M12.9922 4.82812L19.6328 0.515625C19.4688 0.328125 19.2578 0.179687 19.0195 0.0898438L11.7227 4.82812H12.9922Z" fill="#FF4B55"/>
</g>
<defs>
<clipPath id="clip0">
<rect width="20" height="13.1055" fill="white"/>
</clipPath>
</defs>
</svg>
