<svg width="30" height="31" viewBox="0 0 30 31" fill="none" xmlns="http://www.w3.org/2000/svg">
<path fill-rule="evenodd" clip-rule="evenodd" d="M27.814 30.231H18.122C16.917 30.231 15.936 29.248 15.936 28.041V18.988C15.936 17.78 16.917 16.797 18.122 16.797H27.814C29.019 16.797 30 17.78 30 18.988V28.041C30 29.248 29.019 30.231 27.814 30.231ZM28.643 18.988C28.643 18.53 28.271 18.157 27.814 18.157H18.122C17.665 18.157 17.293 18.53 17.293 18.988V28.041C17.293 28.499 17.665 28.872 18.122 28.872H27.814C28.271 28.872 28.643 28.499 28.643 28.041V18.988ZM25.697 27.307C25.416 27.307 25.151 27.197 24.951 26.998C24.752 26.798 24.642 26.532 24.642 26.25C24.642 25.967 24.752 25.702 24.951 25.502C25.151 25.302 25.416 25.192 25.697 25.192C25.979 25.192 26.245 25.302 26.444 25.502C26.643 25.702 26.753 25.967 26.753 26.25C26.753 26.532 26.643 26.798 26.444 26.998C26.245 27.197 25.98 27.307 25.697 27.307ZM25.697 21.836C25.416 21.836 25.151 21.726 24.951 21.527C24.752 21.327 24.642 21.061 24.642 20.779C24.642 20.496 24.752 20.231 24.951 20.031C25.151 19.831 25.416 19.721 25.697 19.721C25.98 19.721 26.245 19.832 26.444 20.031C26.643 20.231 26.753 20.496 26.753 20.779C26.753 21.061 26.643 21.327 26.444 21.527C26.245 21.726 25.979 21.836 25.697 21.836ZM22.968 24.572C22.386 24.572 21.913 24.098 21.913 23.514C21.913 22.931 22.386 22.457 22.968 22.457C23.55 22.457 24.023 22.931 24.023 23.514C24.023 24.098 23.55 24.572 22.968 24.572ZM20.238 27.307C19.956 27.307 19.691 27.197 19.492 26.997C19.293 26.798 19.183 26.532 19.183 26.25C19.183 25.967 19.293 25.702 19.492 25.502C19.691 25.302 19.956 25.192 20.238 25.192C20.52 25.192 20.785 25.302 20.984 25.502C21.184 25.702 21.294 25.967 21.294 26.25C21.294 26.532 21.184 26.798 20.984 26.998C20.785 27.197 20.52 27.307 20.238 27.307ZM20.238 21.836C19.956 21.836 19.691 21.726 19.492 21.527C19.293 21.327 19.183 21.061 19.183 20.779C19.183 20.496 19.293 20.231 19.492 20.031C19.691 19.832 19.956 19.721 20.238 19.721C20.52 19.721 20.785 19.831 20.984 20.031C21.184 20.231 21.294 20.496 21.294 20.779C21.294 21.061 21.184 21.327 20.984 21.527C20.785 21.726 20.52 21.836 20.238 21.836ZM6.986 18.739C7.684 18.739 8.341 18.467 8.835 17.972C9.1 17.706 9.53 17.706 9.794 17.972C10.059 18.237 10.059 18.668 9.794 18.933C9.044 19.685 8.047 20.099 6.986 20.099C5.926 20.099 4.928 19.685 4.178 18.933C3.428 18.182 3.015 17.182 3.015 16.119C3.015 15.057 3.428 14.057 4.178 13.305L12.814 4.65096C13.079 4.38496 13.509 4.38496 13.773 4.65096L22.409 13.305C22.644 13.54 22.852 13.811 23.027 14.112C23.217 14.435 23.109 14.852 22.786 15.042C22.463 15.232 22.047 15.124 21.857 14.8C21.74 14.599 21.603 14.42 21.45 14.267L13.294 6.09296L5.137 14.267C4.644 14.762 4.372 15.42 4.372 16.119C4.372 16.819 4.644 17.477 5.138 17.972C5.631 18.467 6.288 18.739 6.986 18.739ZM25.864 15.112C25.503 15.211 25.13 14.996 25.031 14.634C24.775 13.69 24.274 12.824 23.582 12.13L13.294 1.81996L3.006 12.13C1.942 13.196 1.357 14.612 1.357 16.119C1.357 17.626 1.942 19.043 3.006 20.108C4.069 21.174 5.483 21.761 6.986 21.761C8.49 21.761 9.903 21.174 10.967 20.108L11.325 19.749C11.517 19.557 11.804 19.498 12.056 19.599C12.308 19.699 12.476 19.941 12.483 20.212C12.524 21.796 12.32 26.883 8.158 28.114V28.872H13.859C14.234 28.872 14.537 29.176 14.537 29.552C14.537 29.927 14.234 30.231 13.859 30.231H7.48C7.105 30.231 6.801 29.927 6.801 29.552V27.582C6.801 27.257 7.03 26.978 7.348 26.915C10.066 26.375 10.852 23.706 11.06 21.809C9.881 22.661 8.469 23.12 6.986 23.12C5.12 23.12 3.366 22.392 2.046 21.07C0.727 19.748 0 17.989 0 16.119C0 14.249 0.727 12.491 2.046 11.169L12.814 0.377955C12.941 0.249955 13.114 0.178955 13.294 0.178955C13.474 0.178955 13.646 0.249955 13.773 0.377955L24.541 11.169C25.401 12.03 26.023 13.105 26.341 14.278C26.439 14.64 26.225 15.013 25.864 15.112Z" fill="#ffe905"/>
</svg>
