<svg width="30" height="32" viewBox="0 0 30 32" fill="none" xmlns="http://www.w3.org/2000/svg">
<path fill-rule="evenodd" clip-rule="evenodd" d="M23.2717 16.8309L22.9327 18.2569C22.3277 20.4069 21.3107 22.8619 18.8017 23.0449V25.9879H20.6707C21.2897 25.9879 21.7937 26.4869 21.7937 27.0999V29.9259C21.7937 30.5389 21.2897 31.0379 20.6707 31.0379H8.54972C7.93072 31.0379 7.42672 30.5389 7.42672 29.9259V27.0999C7.42672 26.4869 7.93072 25.9879 8.54972 25.9879H10.4187V23.0419C7.73172 22.7989 6.65972 19.4169 6.29872 18.2769L6.28572 18.2309L5.95472 16.8379C1.53972 14.5459 -0.437278 12.3079 0.0807224 10.1849C0.477722 8.55789 2.25872 7.65789 3.71372 7.40689L3.40072 6.08689C3.15072 4.82889 3.45072 3.60889 4.24372 2.65389C5.09972 1.62389 6.48072 0.983887 7.84672 0.983887H21.3787C22.7267 0.983887 24.0977 1.62389 24.9577 2.65489C25.7597 3.61689 26.0677 4.83489 25.8257 6.08389L25.8197 6.11089L25.5117 7.40889C26.9647 7.66289 28.7377 8.56289 29.1337 10.1849C29.6507 12.3059 27.6777 14.5409 23.2717 16.8309ZM8.75072 27.2989V29.7269H20.4697V27.2989H18.8017H10.4187H8.75072ZM17.4787 25.9879V23.0569H11.7427V25.9879H17.4787ZM4.01772 8.68489C2.93372 8.84989 1.60772 9.50689 1.36672 10.4929C1.21572 11.1149 1.37272 12.7389 5.54672 15.1199L4.01772 8.68489ZM23.9377 3.48989C23.3227 2.75289 22.3417 2.29489 21.3787 2.29489H7.84672C6.86572 2.29489 5.87672 2.75189 5.26672 3.48689C4.88772 3.94289 4.48172 4.71789 4.69672 5.82289L7.56872 17.9069C8.39072 20.4899 9.42372 21.7459 10.7277 21.7459H18.4977C19.9717 21.7459 20.8867 20.6369 21.6547 17.9169L24.5287 5.82389C24.7357 4.72989 24.3217 3.95189 23.9377 3.48989ZM27.8467 10.4929C27.6067 9.51089 26.2897 8.85389 25.2077 8.68689L23.6807 15.1129C27.8417 12.7349 27.9987 11.1139 27.8467 10.4929ZM17.9317 12.8999L18.4807 16.0689C18.5257 16.3239 18.4197 16.5819 18.2077 16.7349C17.9957 16.8869 17.7147 16.9069 17.4837 16.7869L14.6107 15.2899L11.7367 16.7869C11.6367 16.8389 11.5267 16.8649 11.4177 16.8649C11.2747 16.8649 11.1327 16.8209 11.0127 16.7349C10.8017 16.5819 10.6957 16.3239 10.7397 16.0689L11.2887 12.8999L8.96372 10.6549C8.77672 10.4739 8.70972 10.2039 8.78972 9.95689C8.87072 9.71089 9.08572 9.53089 9.34472 9.49389L12.5577 9.03089L13.9937 6.14789C14.1097 5.91589 14.3487 5.76889 14.6107 5.76889C14.8717 5.76889 15.1107 5.91589 15.2267 6.14789L16.6637 9.03089L19.8757 9.49389C20.1347 9.53089 20.3497 9.71089 20.4307 9.95689C20.5117 10.2039 20.4437 10.4739 20.2567 10.6549L17.9317 12.8999ZM16.1077 10.3279C15.8837 10.2959 15.6907 10.1559 15.5907 9.95489L14.6107 7.98789L13.6307 9.95489C13.5307 10.1559 13.3367 10.2959 13.1127 10.3279L10.9207 10.6429L12.5067 12.1739C12.6687 12.3309 12.7427 12.5559 12.7047 12.7769L12.3307 14.9389L14.2907 13.9179C14.3907 13.8659 14.5007 13.8399 14.6107 13.8399C14.7207 13.8399 14.8297 13.8659 14.9297 13.9179L16.8907 14.9389L16.5157 12.7769C16.4777 12.5559 16.5517 12.3309 16.7137 12.1739L18.2997 10.6429L16.1077 10.3279Z" fill="#ffe905"/>
</svg>
