<svg width="30" height="31" viewBox="0 0 30 31" fill="none" xmlns="http://www.w3.org/2000/svg">
<path fill-rule="evenodd" clip-rule="evenodd" d="M29.321 3.473H27.889V4.908C27.889 5.283 27.585 5.588 27.21 5.588C26.836 5.588 26.532 5.283 26.532 4.908V3.473H25.1C24.725 3.473 24.422 3.169 24.422 2.794C24.422 2.418 24.725 2.114 25.1 2.114H26.532V0.68C26.532 0.304 26.836 0 27.21 0C27.585 0 27.889 0.304 27.889 0.68V2.114H29.321C29.696 2.114 29.999 2.418 29.999 2.794C29.999 3.169 29.696 3.473 29.321 3.473ZM22.551 16.74C21.803 16.74 21.194 16.13 21.194 15.38C21.194 14.631 21.803 14.021 22.551 14.021C23.299 14.021 23.908 14.631 23.908 15.38C23.908 16.13 23.299 16.74 22.551 16.74ZM20.356 11.003H18.017V14.986L20.684 19.967C20.737 20.066 20.764 20.177 20.764 20.289V25.038C20.764 25.114 20.751 25.189 20.727 25.261L19.219 29.597C19.124 29.87 18.867 30.053 18.578 30.053H2.186C1.897 30.053 1.64 29.87 1.545 29.597L0.038 25.261C0.013 25.189 0 25.114 0 25.038V20.289C0 20.177 0.028 20.066 0.08 19.967L2.747 14.986V5.717L1.323 3.787C1.236 3.67 1.19 3.528 1.19 3.383V0.68C1.19 0.304 1.494 0 1.868 0H18.896C19.271 0 19.574 0.304 19.574 0.68V3.383C19.574 3.528 19.528 3.67 19.441 3.787L18.017 5.717V9.643H19.677V6.712C19.677 6.336 19.981 6.032 20.356 6.032C20.731 6.032 21.034 6.336 21.034 6.712V10.323C21.034 10.698 20.731 11.003 20.356 11.003ZM18.218 3.159V1.359H2.547V3.159L3.768 4.813H16.996L18.218 3.159ZM4.104 6.173V14.473H16.66V6.173H4.104ZM16.931 15.833H3.833L1.811 19.61H6.364C6.738 19.61 7.042 19.914 7.042 20.29C7.042 20.665 6.738 20.969 6.364 20.969H1.357V24.923L2.668 28.694H18.096L19.408 24.923V20.969H14.401C14.026 20.969 13.722 20.665 13.722 20.29C13.722 19.914 14.026 19.61 14.401 19.61H18.953L16.931 15.833ZM12.04 26.408C11.666 26.408 11.362 26.103 11.362 25.728V23.934C11.362 23.558 11.666 23.254 12.04 23.254C12.415 23.254 12.719 23.558 12.719 23.934V25.728C12.719 26.103 12.415 26.408 12.04 26.408ZM8.724 26.408C8.349 26.408 8.045 26.103 8.045 25.728V23.934C8.045 23.558 8.349 23.254 8.724 23.254C9.099 23.254 9.402 23.558 9.402 23.934V25.728C9.402 26.103 9.099 26.408 8.724 26.408ZM5.407 26.408C5.033 26.408 4.729 26.103 4.729 25.728V23.934C4.729 23.558 5.033 23.254 5.407 23.254C5.782 23.254 6.086 23.558 6.086 23.934V25.728C6.086 26.103 5.782 26.408 5.407 26.408ZM15.357 23.254C15.732 23.254 16.035 23.558 16.035 23.934V25.728C16.035 26.103 15.732 26.408 15.357 26.408C14.982 26.408 14.678 26.103 14.678 25.728V23.934C14.678 23.558 14.982 23.254 15.357 23.254ZM14.324 12.812H6.441C6.066 12.812 5.762 12.508 5.762 12.133V8.513C5.762 8.138 6.066 7.834 6.441 7.834H14.324C14.698 7.834 15.002 8.138 15.002 8.513V12.133C15.002 12.508 14.698 12.812 14.324 12.812ZM13.645 9.193H7.119V11.453H13.645V9.193ZM25.898 10.323C25.898 9.573 26.507 8.964 27.255 8.964C28.003 8.964 28.612 9.573 28.612 10.323C28.612 11.072 28.003 11.682 27.255 11.682C26.507 11.682 25.898 11.072 25.898 10.323ZM27.21 19.514C28.748 19.514 29.999 20.768 29.999 22.308C29.999 23.849 28.748 25.102 27.21 25.102C25.673 25.102 24.422 23.849 24.422 22.308C24.422 20.768 25.673 19.514 27.21 19.514ZM27.21 23.743C28 23.743 28.643 23.099 28.643 22.308C28.643 21.517 28 20.873 27.21 20.873C26.421 20.873 25.778 21.517 25.778 22.308C25.778 23.099 26.421 23.743 27.21 23.743Z" fill="#ffe905"/>
</svg>
