<svg width="30" height="31" viewBox="0 0 30 31" fill="none" xmlns="http://www.w3.org/2000/svg">
<path fill-rule="evenodd" clip-rule="evenodd" d="M27.848 8.10202C27.097 8.10202 26.486 7.49202 26.486 6.74202C26.486 5.99302 27.097 5.38302 27.848 5.38302C28.599 5.38302 29.21 5.99302 29.21 6.74202C29.21 7.49202 28.599 8.10202 27.848 8.10202ZM27.848 3.66502C27.097 3.66502 26.486 3.05502 26.486 2.30602C26.486 1.55602 27.097 0.947021 27.848 0.947021C28.599 0.947021 29.21 1.55602 29.21 2.30602C29.21 3.05502 28.599 3.66502 27.848 3.66502ZM27.376 25.083V29.531C27.376 30.328 26.727 30.976 25.928 30.976H13.928C13.245 30.976 12.689 30.422 12.689 29.74V25.068C12.689 22.419 14.615 20.212 17.143 19.765C16.096 18.854 15.433 17.514 15.433 16.023C15.433 13.284 17.665 11.056 20.41 11.056C23.154 11.056 25.387 13.284 25.387 16.023C25.387 17.593 24.652 18.995 23.507 19.906C25.742 20.571 27.376 22.64 27.376 25.083ZM24.076 16.023C24.076 14.006 22.431 12.365 20.41 12.365C18.388 12.365 16.744 14.006 16.744 16.023C16.744 18.04 18.388 19.68 20.41 19.68C22.431 19.68 24.076 18.04 24.076 16.023ZM21.962 20.989H18.089C15.834 20.989 14 22.819 14 25.068V29.668H25.928C26.002 29.668 26.065 29.605 26.065 29.531V25.083C26.065 22.826 24.224 20.989 21.962 20.989ZM18.417 9.72802C18.041 9.72802 17.736 9.42402 17.736 9.04902V3.43902C17.736 2.81402 17.227 2.30602 16.601 2.30602H2.497C1.871 2.30602 1.362 2.81402 1.362 3.43902V28.508C1.362 29.132 1.871 29.64 2.497 29.64H10.472C10.848 29.64 11.153 29.945 11.153 30.32C11.153 30.695 10.848 31 10.472 31H2.497C1.12 31 0 29.882 0 28.508V3.43902C0 2.06502 1.12 0.947021 2.497 0.947021H16.601C17.978 0.947021 19.099 2.06502 19.099 3.43902V9.04902C19.099 9.42402 18.794 9.72802 18.417 9.72802ZM10.579 26.142H3.708C3.332 26.142 3.027 25.838 3.027 25.463V4.64702C3.027 4.27102 3.332 3.96702 3.708 3.96702H15.39C15.767 3.96702 16.071 4.27102 16.071 4.64702V10.071C16.071 10.43 15.809 10.752 15.451 10.783C15.048 10.818 14.709 10.502 14.709 10.106V5.32602H4.389V24.783H10.608C11.007 24.783 11.325 25.124 11.286 25.529C11.253 25.883 10.935 26.142 10.579 26.142ZM11.685 10.089L8.079 12.109C7.974 12.168 7.86 12.196 7.747 12.196C7.508 12.196 7.277 12.071 7.152 11.849C6.968 11.522 7.085 11.108 7.413 10.924L11.019 8.90402C11.346 8.72002 11.762 8.83602 11.946 9.16402C12.13 9.49102 12.014 9.90502 11.685 10.089ZM7.747 16.218C7.508 16.218 7.277 16.093 7.152 15.871C6.968 15.544 7.085 15.129 7.413 14.946L11.019 12.926C11.346 12.742 11.762 12.858 11.946 13.186C12.13 13.513 12.014 13.927 11.685 14.111L8.079 16.131C7.974 16.19 7.86 16.218 7.747 16.218ZM26.486 11.179C26.486 10.43 27.097 9.82002 27.848 9.82002C28.599 9.82002 29.21 10.43 29.21 11.179C29.21 11.928 28.599 12.538 27.848 12.538C27.097 12.538 26.486 11.928 26.486 11.179Z" fill="#ffe905"/>
</svg>
